<?xml version="1.0" encoding="UTF-8" standalone="no"?>
<!-- Created with Inkscape (http://www.inkscape.org/) -->

<svg
   xmlns:dc="http://purl.org/dc/elements/1.1/"
   xmlns:cc="http://creativecommons.org/ns#"
   xmlns:rdf="http://www.w3.org/1999/02/22-rdf-syntax-ns#"
   xmlns:svg="http://www.w3.org/2000/svg"
   xmlns="http://www.w3.org/2000/svg"
   xmlns:xlink="http://www.w3.org/1999/xlink"
   xmlns:sodipodi="http://sodipodi.sourceforge.net/DTD/sodipodi-0.dtd"
   xmlns:inkscape="http://www.inkscape.org/namespaces/inkscape"
   width="210mm"
   height="430mm"
   viewBox="0 0 793.7008 1122.5197"
   id="svg2"
   version="1.1"
   style="background-color: black"
   inkscape:version="0.92.1 r"
   sodipodi:docname="arch_logo.svg"
   inkscape:export-filename="/home/jtyr/Documents/other/art/arch_linux.png"
   inkscape:export-xdpi="90"
   inkscape:export-ydpi="90">
  <defs
     id="defs4">
    <linearGradient
       gradientTransform="translate(287,-83)"
       x1="112.49854"
       y1="6.1372099"
       x2="112.49853"
       y2="129.3468"
       id="path1082_2_"
       gradientUnits="userSpaceOnUse">
      <stop
         style="stop-color:#ffffff;stop-opacity:0"
         offset="0"
         id="stop193" />
      <stop
         style="stop-color:#ffffff;stop-opacity:0.27450982;"
         offset="1"
         id="stop195" />
      <midPointStop
         offset="0"
         style="stop-color:#FFFFFF"
         id="midPointStop197" />
      <midPointStop
         offset="0.5"
         style="stop-color:#FFFFFF"
         id="midPointStop199" />
      <midPointStop
         offset="1"
         style="stop-color:#000000"
         id="midPointStop201" />
    </linearGradient>
    <linearGradient
       id="linearGradient3388">
      <stop
         id="stop3390"
         offset="0"
         style="stop-color:#000000;stop-opacity:0;" />
      <stop
         id="stop3392"
         offset="1"
         style="stop-color:#000000;stop-opacity:0.37113401;" />
    </linearGradient>
    <linearGradient
       id="linearGradient4346"
       inkscape:collect="always">
      <stop
         id="stop4348"
         offset="0"
         style="stop-color:#00bdec;stop-opacity:1" />
      <stop
         id="stop4350"
         offset="1"
         style="stop-color:#40bfde;stop-opacity:1" />
    </linearGradient>
    <linearGradient
       gradientUnits="userSpaceOnUse"
       y2="666.97791"
       x2="616.48553"
       y1="634.15063"
       x1="400.6142"
       id="linearGradient4352"
       xlink:href="#linearGradient4346"
       inkscape:collect="always" />
    <linearGradient
       id="linearGradient5323"
       inkscape:collect="always">
      <stop
         id="stop5325"
         offset="0"
         style="stop-color:#6e6e6e;stop-opacity:1" />
      <stop
         id="stop5327"
         offset="1"
         style="stop-color:#4d4d4d;stop-opacity:1" />
    </linearGradient>
    <linearGradient
       gradientUnits="userSpaceOnUse"
       y2="348.96875"
       x2="650.81366"
       y1="238.08237"
       x1="291.83591"
       id="linearGradient5329"
       xlink:href="#linearGradient5323"
       inkscape:collect="always" />
    <linearGradient
       y2="303.14029"
       x2="606.91248"
       y1="104.50665"
       x1="541.33502"
       gradientTransform="matrix(-0.3937741,0,0,0.393752,978.34967,416.9815)"
       gradientUnits="userSpaceOnUse"
       id="linearGradient2216"
       xlink:href="#path1082_2_"
       inkscape:collect="always" />
  </defs>
  <sodipodi:namedview
     id="base"
     pagecolor="#000000"
     bordercolor="#666666"
     borderopacity="1.0"
     inkscape:pageopacity="0"
     inkscape:pageshadow="2"
     inkscape:zoom="0.35355339"
     inkscape:cx="37.819629"
     inkscape:cy="854.87567"
     inkscape:document-units="px"
     inkscape:current-layer="layer1"
     showgrid="false"
     units="mm"
     showguides="true"
     inkscape:guide-bbox="true"
     inkscape:window-width="1920"
     inkscape:window-height="1019"
     inkscape:window-x="0"
     inkscape:window-y="0"
     inkscape:window-maximized="1"
     objecttolerance="10"
     scale-x="1" />
  <metadata
     id="metadata7">
    <rdf:RDF>
      <cc:Work
         rdf:about="">
        <dc:format>image/svg+xml</dc:format>
        <dc:type
           rdf:resource="http://purl.org/dc/dcmitype/StillImage" />
        <dc:title></dc:title>
      </cc:Work>
    </rdf:RDF>
  </metadata>
  <g
     inkscape:label="Layer 1"
     inkscape:groupmode="layer"
     id="layer1"
     transform="translate(0,-29.05507)">
    <g
       style="stroke-width:0.93749708"
       id="g4905"
       transform="matrix(1.06667,0,0,1.06667,-2.8822103,-144.34682)"
       inkscape:export-xdpi="90"
       inkscape:export-ydpi="90">
      <g
         style="stroke-width:0.51959652"
         inkscape:label="Layer 1"
         id="g4897"
         transform="matrix(1.875,0,0,1.875,-210.14475,-92.512063)">
        <g
           style="stroke-width:0.51959652"
           id="g4895"
           transform="matrix(1.3473684,0,0,1.3473684,-632.88236,-513.34366)">
          <g
             style="stroke-width:0.51959652"
             id="g4893"
             transform="matrix(0.25,0,0,0.25,502.3126,469.21738)">
            <path
               inkscape:connector-curvature="0"
               style="fill:#595959;fill-opacity:1;fill-rule:evenodd;stroke:none;stroke-width:0.51959652;stroke-linecap:round;stroke-linejoin:round;stroke-miterlimit:10;stroke-dasharray:none;stroke-opacity:1"
               d="M 128,0 C 116.60518,27.937051 109.68663,46.237163 97,73.34375 104.7785,81.588957 114.33826,91.155503 129.84375,102 113.17383,95.140423 101.81018,88.271496 93.3125,81.125 77.076039,115.00489 51.621645,163.24639 0,256 c 40.562707,-23.41756 72.007597,-37.86167 101.3125,-43.375 -1.25376,-5.40435 -1.923505,-11.27752 -1.875,-17.375 l 0.03125,-1.28125 c 0.64379,-25.99398 14.16934,-45.98224 30.1875,-44.625 16.01815,1.35723 28.48754,23.53727 27.84375,49.53125 -0.12127,4.89622 -0.6905,9.60082 -1.65625,13.96875 C 184.83328,218.51691 215.98162,232.89667 256,256 c -7.89193,-14.52962 -14.96051,-27.61983 -21.6875,-40.09375 -10.59609,-8.21269 -21.64301,-18.89743 -44.1875,-30.46875 15.4958,4.02645 26.60184,8.6825 35.25,13.875 C 156.97985,71.972668 151.45422,55.040376 128,0 Z"
               transform="matrix(0.7421875,0,0,0.7421875,669.75015,435.62318)"
               id="path4887" />
            <path
               inkscape:connector-curvature="0"
               style="fill:#666666;fill-opacity:1;fill-rule:evenodd;stroke:none;stroke-width:0.37107861;stroke-linecap:round;stroke-linejoin:round;stroke-miterlimit:10;stroke-dasharray:none;stroke-opacity:1"
               d="m 765.12124,436.36538 c -1.06809,2.62569 -2.07571,5.18569 -3.06152,7.60742 -1.08115,2.65585 -2.13247,5.21447 -3.1543,7.70019 -1.02175,2.48575 -2.05759,4.84198 -3.06152,7.23633 -1.00399,2.39446 -1.9411,4.7617 -2.96875,7.14356 -1.02758,2.38177 -2.15434,4.78844 -3.24707,7.23632 -1.09273,2.44796 -2.23335,4.92185 -3.43262,7.51465 -1.19937,2.59282 -2.45641,5.34774 -3.80371,8.16407 -0.18273,0.38196 -0.37075,0.81915 -0.55664,1.20605 5.75763,6.09886 12.85563,13.14354 24.30664,21.15234 -12.3722,-5.09109 -20.78297,-10.18912 -27.08984,-15.49316 -0.32869,0.67104 -0.58906,1.26104 -0.92774,1.94824 -1.24721,2.58455 -2.58439,5.14414 -3.98925,7.97852 -0.33495,0.66595 -0.58339,1.26662 -0.92774,1.94824 -1.485,2.98035 -3.04573,6.06522 -4.73144,9.37012 -0.33426,0.65055 -0.6781,1.19104 -1.02051,1.85547 -1.02029,1.97964 -4.27491,8.22324 -7.60742,14.56543 -1.94316,3.70493 -3.46894,6.73989 -5.65918,10.85449 -0.62086,1.18197 -1.8984,3.54789 -2.22657,4.1748 24.12062,-13.57765 50.143,-33.2992 97.41211,-16.4209 -2.36708,-4.48319 -4.63595,-8.66436 -6.67968,-12.61718 -2.0437,-3.95294 -3.89608,-7.63232 -5.65918,-11.13282 -1.76296,-3.50043 -3.39212,-6.80069 -4.917,-9.92675 -1.52486,-3.12599 -2.93832,-6.07649 -4.26757,-8.90625 -1.32933,-2.8297 -2.62746,-5.55264 -3.80372,-8.16407 -1.17634,-2.61139 -2.27388,-5.13635 -3.33984,-7.60742 -1.06607,-2.4712 -2.06338,-4.92037 -3.06152,-7.3291 -0.99823,-2.4088 -1.99587,-4.719 -2.96875,-7.14355 -0.42343,-1.055 -0.78165,-2.1785 -1.20606,-3.24707 -2.63564,-6.18974 -5.22363,-12.32495 -8.34961,-19.66797 z"
               id="path4889" />
            <path
               inkscape:connector-curvature="0"
               style="fill:#747474;fill-opacity:1;fill-rule:evenodd;stroke:none;stroke-width:18.75743294;stroke-linecap:butt;stroke-linejoin:round;stroke-miterlimit:10;stroke-opacity:1"
               d="M 818.22607,548.55277 C 777.04464,492.65769 767.49922,447.60796 765.0814,436.85262 c 21.96737,50.6686 21.81733,51.28995 53.14467,111.70015 z"
               id="path4891"
               sodipodi:nodetypes="ccc" />
          </g>
        </g>
      </g>
      <g
         style="stroke-width:0.93749708"
         id="g4903">
        <path
           inkscape:connector-curvature="0"
           id="path4899"
           d="m 645.88061,496.64897 c -0.76108,-0.0582 -1.36167,-0.13637 -2.10135,-0.27367 -4.99891,-0.9279 -8.5003,-4.06043 -9.78036,-8.75018 -0.3077,-1.12745 -0.28966,-0.34807 -0.37487,-16.18841 -0.0431,-8.04423 -0.0682,-14.63606 -0.056,-14.64853 0.0467,-0.0464 4.69632,-0.97619 4.8905,-0.97788 l 0.20209,-10e-4 0.007,7.17961 c 0.007,3.94879 0.0244,10.41649 0.0453,14.37269 0.0352,6.56804 0.0467,7.2282 0.13269,7.59719 0.71166,3.0583 2.53534,5.25903 5.20108,6.27633 1.92699,0.73535 4.5517,0.84247 7.27842,0.29702 5.46452,-1.09309 9.21972,-4.69977 10.15401,-9.75232 0.19771,-1.06917 0.19964,-1.20089 0.19052,-13.02567 -0.007,-6.3788 0,-11.59783 0.0136,-11.59783 0.0122,0 1.01921,-0.25458 2.23699,-0.56575 1.21777,-0.31116 2.27592,-0.56574 2.35142,-0.56574 h 0.13729 l -5.7e-4,0.98332 c -5.1e-4,0.54083 0.0381,9.30778 0.0856,19.48211 0.0474,10.17433 0.0748,18.51009 0.0611,18.52389 -0.0417,0.0417 -4.46234,0.93631 -4.62692,0.93631 h -0.15288 v -2.43811 c 0,-1.34095 -0.0158,-3.00237 -0.0352,-3.69203 l -0.0352,-1.25393 -0.33219,0.6343 c -0.9659,1.84462 -2.26622,3.38388 -3.8802,4.59309 -1.99747,1.49657 -4.44919,2.43272 -7.2739,2.77746 -0.82977,0.10127 -3.42466,0.14822 -4.3374,0.0785 z m 53.30099,-0.69204 c -0.17005,-0.2331 -2.98751,-4.14539 -6.26102,-8.69397 l -5.95174,-8.27016 -6.05583,8.47845 c -5.45827,7.64178 -6.06992,8.47825 -6.19837,8.47647 -0.21746,-0.003 -3.47718,-2.43683 -3.50009,-2.61326 -0.0129,-0.10041 1.4792,-2.2515 6.43429,-9.27518 3.54815,-5.02945 6.45103,-9.16995 6.45082,-9.20111 0,-0.0312 -2.72127,-3.61706 -6.04671,-7.96865 -4.64258,-6.07508 -6.04248,-7.94128 -6.02976,-8.0381 0.023,-0.17586 3.1342,-2.61293 3.33019,-2.60872 0.11379,0.002 1.0136,1.12501 5.78708,7.21991 3.10877,3.96936 5.66674,7.21614 5.68441,7.21506 0.018,-7.2e-4 2.21307,-3.11672 4.8788,-6.92367 3.86016,-5.51283 4.8701,-6.92173 4.96155,-6.92173 0.1689,0 3.44126,2.77844 3.4631,2.94041 0.0122,0.0918 -1.36326,2.06157 -5.32881,7.63017 -2.93995,4.12853 -5.34583,7.53179 -5.3464,7.5628 -5.1e-4,0.031 3.02177,4.24495 6.71619,9.3643 3.69443,5.11935 6.71714,9.35501 6.71714,9.41259 0,0.13573 -3.11158,2.6382 -3.28033,2.6382 -0.0818,0 -0.20511,-0.12316 -0.42451,-0.42381 z m -76.47725,-0.82892 c -0.007,-0.30375 -0.023,-6.75934 -0.0409,-14.34575 l -0.0331,-13.79347 -0.18025,-0.5388 c -0.8271,-2.47202 -2.55955,-4.50169 -4.80781,-5.63255 -2.20789,-1.11054 -5.09145,-1.38777 -8.10647,-0.77934 -4.70566,0.94961 -8.94147,4.13826 -10.28131,7.73965 -0.38047,1.0227 -0.3587,0.0689 -0.32041,14.0279 0.0187,6.91983 0.0165,12.5815 -0.007,12.5815 -0.0223,0 -1.06346,0.26671 -2.31386,0.59269 -1.25032,0.32598 -2.32405,0.59269 -2.38598,0.59269 -0.11222,0 -0.11272,-0.009 -0.14641,-2.62669 -0.0532,-4.12605 -0.16552,-36.32344 -0.12702,-36.36196 0.0503,-0.0503 4.39811,-0.93326 4.60537,-0.93528 l 0.17508,-10e-4 v 3.75428 3.75426 l 0.2375,-0.4879 c 1.15298,-2.36896 3.09664,-4.44652 5.38722,-5.75832 2.26471,-1.297 4.72095,-1.9187 7.89934,-1.99938 3.8871,-0.0987 6.8943,0.61413 9.34831,2.2159 2.41882,1.57872 4.17468,4.05737 4.90179,6.91942 0.2995,1.17905 0.2852,0.54886 0.35288,15.52479 0.0345,7.63087 0.0546,14.18718 0.0438,14.5696 l -0.0187,0.69531 -1.9397,0.42233 c -1.06684,0.23228 -2.00638,0.42251 -2.08785,0.42272 l -0.14821,5.4e-4 -0.008,-0.55228 z m -40.09963,-4.09493 c -0.0779,-9.76544 -0.15561,-33.72336 -0.10942,-33.76581 0.1069,-0.0983 3.97719,-1.78201 4.09638,-1.78201 h 0.12787 v 19.54538 19.54537 l -1.89926,0.39122 c -1.04464,0.21517 -1.96269,0.3909 -2.04014,0.3905 l -0.14088,-7.2e-4 -0.0345,-4.32393 z m -12.39078,-6.76204 c -0.0194,-5.97874 -0.0517,-18.13427 -0.0711,-27.01228 l -0.0359,-16.14183 2.29826,-0.57467 c 1.26397,-0.31606 2.3469,-0.57466 2.40646,-0.57466 0.10661,0 0.10819,0.0331 0.10949,2.3034 7.2e-4,1.26688 0.0474,13.50472 0.10438,27.19522 0.0568,13.69049 0.0985,24.89543 0.093,24.89986 -0.0359,0.0287 -4.56865,0.7769 -4.70242,0.77623 l -0.16631,-7.2e-4 -0.0359,-10.87044 z m 12.60917,-39.21379 c -1.06605,-1.22209 -1.33373,-1.55928 -1.32008,-1.66283 0.0244,-0.18705 3.13443,-2.72584 3.33932,-2.72615 0.11947,-1.6e-4 0.36193,0.24278 1.45478,1.45778 0.96956,1.07787 1.31584,1.49813 1.32805,1.61195 0.0151,0.14185 -0.10884,0.25903 -1.57971,1.49197 -1.1195,0.93838 -1.63941,1.34133 -1.74071,1.34912 -0.12673,0.01 -0.3092,-0.17771 -1.48165,-1.52184 z"
           style="fill:#595959;fill-opacity:1;stroke-width:0.3732833"
           sodipodi:nodetypes="cscccccccccsscsssccccscsccccscccscsccscsccscsscccssscccccssscscscccccccssccsccsccccccsccccccccccccssccccccaccccsca" />
        <path
           sodipodi:nodetypes="csccssccccccscscssccccscsccssccssccccsscssscccsssssccsscscscscccscccccccscccsccccccsscccsscssccccccccsccccscscsssssssssccssssssccsscssccc"
           style="opacity:0.95999995;fill:#6f6f6f;fill-opacity:1;stroke-width:0.3732833"
           d="m 551.79887,496.20563 c -0.007,-0.007 -0.0481,-6.63272 -0.0997,-14.72292 l -0.0937,-14.70944 -0.16279,-0.4147 c -0.224,-0.57046 -0.71029,-1.28044 -1.22906,-1.79441 -1.56218,-1.54774 -3.9473,-2.28465 -6.86792,-2.12195 -1.82713,0.1018 -3.47675,0.54072 -4.9441,1.31555 -2.02994,1.07185 -3.51834,2.68257 -4.00636,4.33559 l -0.11932,0.4041 -0.0453,8.99809 c -0.0244,4.94895 -0.0603,10.74442 -0.0784,12.87882 l -0.0331,3.88074 -5.01795,0.90334 c -2.75991,0.49684 -5.04431,0.90236 -5.07643,0.90118 -0.0618,-0.002 -0.13017,-22.94414 -0.13017,-43.59511 v -10.37547 l 4.97147,-1.16848 c 2.73434,-0.64266 5.06198,-1.16848 5.17255,-1.16848 h 0.20108 v 7.59381 7.59381 l -0.36373,0.30612 c -1.26297,1.06305 -2.93456,2.74713 -4.24983,4.28156 -1.12675,1.31451 -1.13875,1.29277 0.1717,0.3111 0.65016,-0.48702 1.75185,-1.29747 2.44827,-1.80101 0.69643,-0.50355 1.66269,-1.21204 2.14719,-1.57444 0.93264,-0.69746 1.48114,-1.00565 2.45926,-1.38164 1.97562,-0.75948 4.12008,-1.12046 7.08567,-1.19274 4.05464,-0.0988 7.84224,0.68175 11.14685,2.29725 3.45649,1.68973 6.14147,4.23558 6.6945,6.34757 0.10791,0.41224 0.10827,0.49131 0.0704,16.18786 -0.0208,8.70153 -0.0589,15.77358 -0.084,15.77358 -0.0252,0 -2.23721,0.38795 -4.91508,0.8621 -4.49969,0.79673 -5.03526,0.88668 -5.05222,0.84862 z m -118.63944,-0.56291 c -0.57473,-0.0276 -1.75773,-0.17774 -2.50545,-0.31801 -3.42466,-0.64251 -6.42848,-2.16222 -8.61345,-4.35779 -2.51264,-2.52486 -3.90039,-5.76743 -4.24128,-9.91018 -0.0954,-1.15941 -0.0373,-3.91699 0.10173,-4.80411 0.44383,-2.83719 1.5471,-5.07304 3.42847,-6.94788 2.84885,-2.83894 7.1453,-4.43368 12.85372,-4.77098 2.44029,-0.14419 4.50012,0.0639 6.1863,0.6249 1.2547,0.41746 2.19323,0.92884 3.02213,1.64659 l 0.45281,0.39209 -0.0316,-0.67003 c -0.12809,-2.73512 -1.77576,-4.05286 -5.61573,-4.49123 -2.06665,-0.23593 -3.49729,-0.15502 -6.62734,0.37484 -2.22347,0.3764 -4.00563,0.75238 -7.12605,1.50341 -0.80771,0.19441 -1.5412,0.35348 -1.62993,0.35348 -0.14907,0 -0.16128,-0.0146 -0.16128,-0.19298 0,-0.16124 1.86593,-10.36828 1.90113,-10.39963 0.0359,-0.032 1.194,-0.3683 1.82577,-0.53019 3.25346,-0.83375 6.9129,-1.27016 10.64425,-1.26939 3.57567,7.2e-4 6.0669,0.31982 8.55511,1.09581 5.03627,1.57058 8.05445,4.94114 8.88508,9.92242 0.26358,1.58084 0.25884,1.2188 0.21732,16.70444 l -0.0388,14.44144 -4.58568,0.76844 c -2.52212,0.42264 -4.64028,0.76752 -4.70695,0.7664 -0.1212,-0.002 -0.12127,-0.002 -0.12127,-0.98553 v -0.98348 l 0.36373,-0.40556 c 1.41814,-1.58139 2.82594,-3.57534 4.44947,-6.30228 0.0618,-0.10373 -0.33355,0.2721 -0.87847,0.83515 -0.54491,0.56305 -1.81678,1.8493 -2.82644,2.85832 -1.98978,1.98865 -2.25825,2.20934 -3.68702,3.03075 -2.55431,1.46857 -5.9465,2.19085 -9.49056,2.02077 z m 4.13115,-9.63252 c 3.02544,-0.62416 5.42845,-2.29641 6.235,-4.3389 0.40066,-1.01456 0.40892,-2.16074 0.0244,-3.34061 -0.79679,-2.44321 -3.30239,-4.0969 -6.78545,-4.47825 -0.77883,-0.0853 -2.08799,-0.0324 -2.79325,0.11278 -2.54655,0.52428 -4.66687,1.96579 -5.60346,3.80954 -0.60066,1.18251 -0.66194,2.33108 -0.19346,3.62713 0.29929,0.82804 0.73342,1.46899 1.53287,2.26299 1.23552,1.22712 2.82672,2.05607 4.58396,2.38801 0.25187,0.0476 0.51862,0.098 0.59268,0.11205 0.35504,0.0673 1.77232,-0.0238 2.40696,-0.15474 z m 23.15586,-11.11441 c 0.0215,-11.40184 0.0438,-20.73511 0.0496,-20.7406 0.0187,-0.0188 9.76642,-1.68726 9.85773,-1.68726 0.0846,0 0.0912,0.21263 0.0912,2.91964 v 2.91965 l 0.16803,-0.15826 c 0.0925,-0.087 0.46223,-0.4976 0.82172,-0.91236 1.38524,-1.59809 2.32456,-2.33622 3.82661,-3.00688 2.33706,-1.04348 6.18896,-1.65167 10.47233,-1.65349 l 1.2527,-5.4e-4 v 0.12767 c 0,0.0702 -0.44578,1.17947 -0.99069,2.46504 -1.98418,4.68116 -3.29097,7.50203 -3.50168,7.55859 -0.0632,0.0169 -0.33262,0.0312 -0.59936,0.0319 -0.59018,10e-4 -1.59121,0.11733 -2.31465,0.26792 -2.43742,0.50739 -4.61054,1.6206 -6.19011,3.17097 -0.95807,0.94032 -1.55744,1.89317 -1.88719,3.00013 -0.11221,0.37668 -0.11236,0.39244 -0.12773,12.37543 l -0.0151,11.99825 -0.28212,0.0567 c -1.91657,0.38479 -10.41356,1.99816 -10.52355,1.99816 h -0.14699 l 0.0395,-20.73062 z m 41.70729,20.67082 c -3.45369,-0.25999 -6.7111,-1.11078 -9.45349,-2.46915 -0.9733,-0.48209 -1.29637,-0.66803 -2.2117,-1.27267 -1.13278,-0.74838 -1.86887,-1.34873 -2.83348,-2.31101 -1.42094,-1.4175 -2.35473,-2.67766 -3.23076,-4.36005 -1.74365,-3.34873 -2.53735,-7.08823 -2.43153,-11.45678 0.10525,-4.34504 0.87546,-7.80745 2.40933,-10.83042 2.47119,-4.87012 6.79357,-7.95053 12.88009,-9.17907 0.88005,-0.17765 1.94552,-0.3303 3.12041,-0.44709 1.1991,-0.11919 4.92801,-0.13586 6.0077,-0.0269 2.23088,0.22521 3.86663,0.55616 5.68442,1.15007 3.10425,1.0142 5.81496,2.56005 8.0148,4.57061 0.53047,0.48484 0.66,0.63167 0.66,0.74793 0,0.1138 -0.69736,0.95205 -3.26754,3.92772 -2.78298,3.222 -3.28838,3.78283 -3.40792,3.7815 -0.0974,-7.2e-4 -0.28076,-0.12668 -0.59844,-0.40991 -0.96935,-0.86433 -1.84473,-1.45081 -3.04426,-2.03966 -2.86021,-1.4041 -5.67795,-1.71244 -8.91195,-0.97522 -2.65617,0.60549 -4.7757,1.76456 -6.29894,3.44456 -1.64459,1.81387 -2.48893,4.1381 -2.48893,6.85158 0,4.06682 1.95299,7.72271 5.30969,9.9394 2.01198,1.32867 4.43072,2.01621 6.75959,1.92145 1.85221,-0.0754 3.35972,-0.4606 5.01091,-1.28058 1.52475,-0.75714 2.94211,-1.84786 3.90794,-3.00736 0.25805,-0.30977 0.34512,-0.37983 0.47199,-0.37983 0.13219,0 0.47753,0.31506 2.29259,2.09141 2.26594,2.21757 3.17868,3.09544 3.98401,3.83178 0.38823,0.35501 0.49679,0.48564 0.49679,0.59768 0,0.18768 -0.99321,1.36677 -1.83712,2.18092 -3.28615,3.17021 -7.63634,5.02842 -12.67807,5.4155 -0.81001,0.0622 -3.45677,0.0582 -4.31613,-0.006 z"
           id="path4901"
           inkscape:connector-curvature="0" />
      </g>
    </g>
    <g
       transform="matrix(2.0000063,0,0,2.0000063,-227.03732,545.00433)"
       id="g4913"
       inkscape:label="Layer 1"
       style="fill:#ffffff;fill-opacity:1;stroke-width:0.51959652"
       inkscape:export-xdpi="95.999725"
       inkscape:export-ydpi="95.999725">
      <g
         transform="matrix(1.3473684,0,0,1.3473684,-632.88236,-513.34366)"
         id="g4911"
         style="fill:#ffffff;fill-opacity:1;stroke-width:0.51959652">
        <g
           transform="matrix(0.25,0,0,0.25,502.3126,469.21738)"
           id="g4909"
           style="fill:#ffffff;fill-opacity:1;stroke-width:0.51959652">
          <path
             transform="matrix(0.7421875,0,0,0.7421875,669.75015,435.62318)"
             id="path4907"
             d="M 128,0 C 116.60518,27.937051 109.68663,46.237163 97,73.34375 104.7785,81.588957 114.33826,91.155503 129.84375,102 113.17383,95.140423 101.81018,88.271496 93.3125,81.125 77.076039,115.00489 51.621645,163.24639 0,256 c 40.562707,-23.41756 72.007597,-37.86167 101.3125,-43.375 -1.25376,-5.40435 -1.923505,-11.27752 -1.875,-17.375 l 0.03125,-1.28125 c 0.64379,-25.99398 14.16934,-45.98224 30.1875,-44.625 16.01815,1.35723 28.48754,23.53727 27.84375,49.53125 -0.12127,4.89622 -0.6905,9.60082 -1.65625,13.96875 C 184.83328,218.51691 215.98162,232.89667 256,256 c -7.89193,-14.52962 -14.96051,-27.61983 -21.6875,-40.09375 -10.59609,-8.21269 -21.64301,-18.89743 -44.1875,-30.46875 15.4958,4.02645 26.60184,8.6825 35.25,13.875 C 156.97985,71.972668 151.45422,55.040376 128,0 Z"
             style="fill:#ffffff;fill-opacity:1;fill-rule:evenodd;stroke:none;stroke-width:0.51959652;stroke-linecap:round;stroke-linejoin:round;stroke-miterlimit:10;stroke-dasharray:none;stroke-opacity:1"
             inkscape:connector-curvature="0" />
        </g>
      </g>
    </g>
    <g
       style="stroke-width:0.51959652"
       inkscape:label="Layer 1"
       id="g4925"
       transform="matrix(2.0000063,0,0,2.0000063,-227.03732,-715.84525)"
       inkscape:export-xdpi="95.999725"
       inkscape:export-ydpi="95.999725">
      <g
         style="stroke-width:0.51959652"
         id="g4923"
         transform="matrix(1.3473684,0,0,1.3473684,-632.88236,-513.34366)">
        <g
           style="stroke-width:0.51959652"
           id="g4921"
           transform="matrix(0.25,0,0,0.25,502.3126,469.21738)">
          <path
             inkscape:connector-curvature="0"
             style="fill:#1793d1;fill-opacity:1;fill-rule:evenodd;stroke:none;stroke-width:0.51959652;stroke-linecap:round;stroke-linejoin:round;stroke-miterlimit:10;stroke-dasharray:none;stroke-opacity:1"
             d="M 128,0 C 116.60518,27.937051 109.68663,46.237163 97,73.34375 104.7785,81.588957 114.33826,91.155503 129.84375,102 113.17383,95.140423 101.81018,88.271496 93.3125,81.125 77.076039,115.00489 51.621645,163.24639 0,256 c 40.562707,-23.41756 72.007597,-37.86167 101.3125,-43.375 -1.25376,-5.40435 -1.923505,-11.27752 -1.875,-17.375 l 0.03125,-1.28125 c 0.64379,-25.99398 14.16934,-45.98224 30.1875,-44.625 16.01815,1.35723 28.48754,23.53727 27.84375,49.53125 -0.12127,4.89622 -0.6905,9.60082 -1.65625,13.96875 C 184.83328,218.51691 215.98162,232.89667 256,256 c -7.89193,-14.52962 -14.96051,-27.61983 -21.6875,-40.09375 -10.59609,-8.21269 -21.64301,-18.89743 -44.1875,-30.46875 15.4958,4.02645 26.60184,8.6825 35.25,13.875 C 156.97985,71.972668 151.45422,55.040376 128,0 Z"
             transform="matrix(0.7421875,0,0,0.7421875,669.75015,435.62318)"
             id="path4915" />
          <path
             inkscape:connector-curvature="0"
             style="fill:#39aeea;fill-opacity:0.97647059;fill-rule:evenodd;stroke:none;stroke-width:0.37107864;stroke-linecap:round;stroke-linejoin:round;stroke-miterlimit:10;stroke-dasharray:none;stroke-opacity:1"
             d="m 765.12124,436.36538 c -1.06809,2.62569 -2.07571,5.18569 -3.06152,7.60742 -1.08115,2.65585 -2.13247,5.21447 -3.1543,7.70019 -1.02175,2.48575 -2.05759,4.84198 -3.06152,7.23633 -1.00399,2.39446 -1.9411,4.7617 -2.96875,7.14356 -1.02758,2.38177 -2.15434,4.78844 -3.24707,7.23632 -1.09273,2.44796 -2.23335,4.92185 -3.43262,7.51465 -1.19937,2.59282 -2.45641,5.34774 -3.80371,8.16407 -0.18273,0.38196 -0.37075,0.81915 -0.55664,1.20605 5.75763,6.09886 12.85563,13.14354 24.30664,21.15234 -12.3722,-5.09109 -20.78297,-10.18912 -27.08984,-15.49316 -0.32869,0.67104 -0.58906,1.26104 -0.92774,1.94824 -1.24721,2.58455 -2.58439,5.14414 -3.98925,7.97852 -0.33495,0.66595 -0.58339,1.26662 -0.92774,1.94824 -1.485,2.98035 -3.04573,6.06522 -4.73144,9.37012 -0.33426,0.65055 -0.6781,1.19104 -1.02051,1.85547 -1.02029,1.97964 -4.27491,8.22324 -7.60742,14.56543 -1.94316,3.70493 -3.46894,6.73989 -5.65918,10.85449 -0.62086,1.18197 -1.8984,3.54789 -2.22657,4.1748 24.12062,-13.57765 50.143,-33.2992 97.41211,-16.4209 -2.36708,-4.48319 -4.63595,-8.66436 -6.67968,-12.61718 -2.0437,-3.95294 -3.89608,-7.63232 -5.65918,-11.13282 -1.76296,-3.50043 -3.39212,-6.80069 -4.917,-9.92675 -1.52486,-3.12599 -2.93832,-6.07649 -4.26757,-8.90625 -1.32933,-2.8297 -2.62746,-5.55264 -3.80372,-8.16407 -1.17634,-2.61139 -2.27388,-5.13635 -3.33984,-7.60742 -1.06607,-2.4712 -2.06338,-4.92037 -3.06152,-7.3291 -0.99823,-2.4088 -1.99587,-4.719 -2.96875,-7.14355 -0.42343,-1.055 -0.78165,-2.1785 -1.20606,-3.24707 -2.63564,-6.18974 -5.22363,-12.32495 -8.34961,-19.66797 z"
             id="path4917" />
          <path
             inkscape:connector-curvature="0"
             style="fill:#6fc4ef;fill-opacity:0.97647059;fill-rule:evenodd;stroke:none;stroke-width:18.75743294;stroke-linecap:butt;stroke-linejoin:round;stroke-miterlimit:10;stroke-opacity:1"
             d="M 818.22607,548.55277 C 777.04464,492.65769 767.49922,447.60796 765.0814,436.85262 c 21.96737,50.6686 21.81733,51.28995 53.14467,111.70015 z"
             id="path4919"
             sodipodi:nodetypes="ccc" />
        </g>
      </g>
    </g>
    <g
       style="stroke-width:0.51959652"
       inkscape:label="Layer 1"
       id="g4937"
       transform="matrix(2.0000063,0,0,2.0000063,-227.03732,-400.63291)"
       inkscape:export-xdpi="95.999725"
       inkscape:export-ydpi="95.999725">
      <g
         style="stroke-width:0.51959652"
         id="g4935"
         transform="matrix(1.3473684,0,0,1.3473684,-632.88236,-513.34366)">
        <g
           style="stroke-width:0.51959652"
           id="g4933"
           transform="matrix(0.25,0,0,0.25,502.3126,469.21738)">
          <path
             inkscape:connector-curvature="0"
             style="fill:#595959;fill-opacity:1;fill-rule:evenodd;stroke:none;stroke-width:0.51959652;stroke-linecap:round;stroke-linejoin:round;stroke-miterlimit:10;stroke-dasharray:none;stroke-opacity:1"
             d="M 128,0 C 116.60518,27.937051 109.68663,46.237163 97,73.34375 104.7785,81.588957 114.33826,91.155503 129.84375,102 113.17383,95.140423 101.81018,88.271496 93.3125,81.125 77.076039,115.00489 51.621645,163.24639 0,256 c 40.562707,-23.41756 72.007597,-37.86167 101.3125,-43.375 -1.25376,-5.40435 -1.923505,-11.27752 -1.875,-17.375 l 0.03125,-1.28125 c 0.64379,-25.99398 14.16934,-45.98224 30.1875,-44.625 16.01815,1.35723 28.48754,23.53727 27.84375,49.53125 -0.12127,4.89622 -0.6905,9.60082 -1.65625,13.96875 C 184.83328,218.51691 215.98162,232.89667 256,256 c -7.89193,-14.52962 -14.96051,-27.61983 -21.6875,-40.09375 -10.59609,-8.21269 -21.64301,-18.89743 -44.1875,-30.46875 15.4958,4.02645 26.60184,8.6825 35.25,13.875 C 156.97985,71.972668 151.45422,55.040376 128,0 Z"
             transform="matrix(0.7421875,0,0,0.7421875,669.75015,435.62318)"
             id="path4927" />
          <path
             inkscape:connector-curvature="0"
             style="fill:#666666;fill-opacity:1;fill-rule:evenodd;stroke:none;stroke-width:0.37107864;stroke-linecap:round;stroke-linejoin:round;stroke-miterlimit:10;stroke-dasharray:none;stroke-opacity:1"
             d="m 765.12124,436.36538 c -1.06809,2.62569 -2.07571,5.18569 -3.06152,7.60742 -1.08115,2.65585 -2.13247,5.21447 -3.1543,7.70019 -1.02175,2.48575 -2.05759,4.84198 -3.06152,7.23633 -1.00399,2.39446 -1.9411,4.7617 -2.96875,7.14356 -1.02758,2.38177 -2.15434,4.78844 -3.24707,7.23632 -1.09273,2.44796 -2.23335,4.92185 -3.43262,7.51465 -1.19937,2.59282 -2.45641,5.34774 -3.80371,8.16407 -0.18273,0.38196 -0.37075,0.81915 -0.55664,1.20605 5.75763,6.09886 12.85563,13.14354 24.30664,21.15234 -12.3722,-5.09109 -20.78297,-10.18912 -27.08984,-15.49316 -0.32869,0.67104 -0.58906,1.26104 -0.92774,1.94824 -1.24721,2.58455 -2.58439,5.14414 -3.98925,7.97852 -0.33495,0.66595 -0.58339,1.26662 -0.92774,1.94824 -1.485,2.98035 -3.04573,6.06522 -4.73144,9.37012 -0.33426,0.65055 -0.6781,1.19104 -1.02051,1.85547 -1.02029,1.97964 -4.27491,8.22324 -7.60742,14.56543 -1.94316,3.70493 -3.46894,6.73989 -5.65918,10.85449 -0.62086,1.18197 -1.8984,3.54789 -2.22657,4.1748 24.12062,-13.57765 50.143,-33.2992 97.41211,-16.4209 -2.36708,-4.48319 -4.63595,-8.66436 -6.67968,-12.61718 -2.0437,-3.95294 -3.89608,-7.63232 -5.65918,-11.13282 -1.76296,-3.50043 -3.39212,-6.80069 -4.917,-9.92675 -1.52486,-3.12599 -2.93832,-6.07649 -4.26757,-8.90625 -1.32933,-2.8297 -2.62746,-5.55264 -3.80372,-8.16407 -1.17634,-2.61139 -2.27388,-5.13635 -3.33984,-7.60742 -1.06607,-2.4712 -2.06338,-4.92037 -3.06152,-7.3291 -0.99823,-2.4088 -1.99587,-4.719 -2.96875,-7.14355 -0.42343,-1.055 -0.78165,-2.1785 -1.20606,-3.24707 -2.63564,-6.18974 -5.22363,-12.32495 -8.34961,-19.66797 z"
             id="path4929" />
          <path
             inkscape:connector-curvature="0"
             style="fill:#747474;fill-opacity:1;fill-rule:evenodd;stroke:none;stroke-width:18.75743294;stroke-linecap:butt;stroke-linejoin:round;stroke-miterlimit:10;stroke-opacity:1"
             d="M 818.22607,548.55277 C 777.04464,492.65769 767.49922,447.60796 765.0814,436.85262 c 21.96737,50.6686 21.81733,51.28995 53.14467,111.70015 z"
             id="path4931"
             sodipodi:nodetypes="ccc" />
        </g>
      </g>
    </g>
    <g
       style="stroke-width:0.93749708"
       transform="matrix(1.06667,0,0,1.06667,234.65609,-954.34972)"
       id="g4955"
       inkscape:export-xdpi="90"
       inkscape:export-ydpi="90">
      <g
         style="stroke-width:0.51959652"
         id="g4947"
         transform="matrix(2.5263157,0,0,2.5263157,-1619.4906,-591.16674)">
        <g
           style="stroke-width:0.51959652"
           id="g4945"
           transform="matrix(0.25,0,0,0.25,502.3126,469.21738)">
          <path
             inkscape:connector-curvature="0"
             style="fill:#1793d1;fill-opacity:1;fill-rule:evenodd;stroke:none;stroke-width:0.51959652;stroke-linecap:round;stroke-linejoin:round;stroke-miterlimit:10;stroke-dasharray:none;stroke-opacity:1"
             d="M 128,0 C 116.60518,27.937051 109.68663,46.237163 97,73.34375 104.7785,81.588957 114.33826,91.155503 129.84375,102 113.17383,95.140423 101.81018,88.271496 93.3125,81.125 77.076039,115.00489 51.621645,163.24639 0,256 c 40.562707,-23.41756 72.007597,-37.86167 101.3125,-43.375 -1.25376,-5.40435 -1.923505,-11.27752 -1.875,-17.375 l 0.03125,-1.28125 c 0.64379,-25.99398 14.16934,-45.98224 30.1875,-44.625 16.01815,1.35723 28.48754,23.53727 27.84375,49.53125 -0.12127,4.89622 -0.6905,9.60082 -1.65625,13.96875 C 184.83328,218.51691 215.98162,232.89667 256,256 c -7.89193,-14.52962 -14.96051,-27.61983 -21.6875,-40.09375 -10.59609,-8.21269 -21.64301,-18.89743 -44.1875,-30.46875 15.4958,4.02645 26.60184,8.6825 35.25,13.875 C 156.97985,71.972668 151.45422,55.040376 128,0 Z"
             transform="matrix(0.7421875,0,0,0.7421875,669.75015,435.62318)"
             id="path4939" />
          <path
             inkscape:connector-curvature="0"
             style="fill:#38adea;fill-opacity:1;fill-rule:evenodd;stroke:none;stroke-width:0.37107861;stroke-linecap:round;stroke-linejoin:round;stroke-miterlimit:10;stroke-dasharray:none;stroke-opacity:1"
             d="m 765.12124,436.36538 c -1.06809,2.62569 -2.07571,5.18569 -3.06152,7.60742 -1.08115,2.65585 -2.13247,5.21447 -3.1543,7.70019 -1.02175,2.48575 -2.05759,4.84198 -3.06152,7.23633 -1.00399,2.39446 -1.9411,4.7617 -2.96875,7.14356 -1.02758,2.38177 -2.15434,4.78844 -3.24707,7.23632 -1.09273,2.44796 -2.23335,4.92185 -3.43262,7.51465 -1.19937,2.59282 -2.45641,5.34774 -3.80371,8.16407 -0.18273,0.38196 -0.37075,0.81915 -0.55664,1.20605 5.75763,6.09886 12.85563,13.14354 24.30664,21.15234 -12.3722,-5.09109 -20.78297,-10.18912 -27.08984,-15.49316 -0.32869,0.67104 -0.58906,1.26104 -0.92774,1.94824 -1.24721,2.58455 -2.58439,5.14414 -3.98925,7.97852 -0.33495,0.66595 -0.58339,1.26662 -0.92774,1.94824 -1.485,2.98035 -3.04573,6.06522 -4.73144,9.37012 -0.33426,0.65055 -0.6781,1.19104 -1.02051,1.85547 -1.02029,1.97964 -4.27491,8.22324 -7.60742,14.56543 -1.94316,3.70493 -3.46894,6.73989 -5.65918,10.85449 -0.62086,1.18197 -1.8984,3.54789 -2.22657,4.1748 24.12062,-13.57765 50.143,-33.2992 97.41211,-16.4209 -2.36708,-4.48319 -4.63595,-8.66436 -6.67968,-12.61718 -2.0437,-3.95294 -3.89608,-7.63232 -5.65918,-11.13282 -1.76296,-3.50043 -3.39212,-6.80069 -4.917,-9.92675 -1.52486,-3.12599 -2.93832,-6.07649 -4.26757,-8.90625 -1.32933,-2.8297 -2.62746,-5.55264 -3.80372,-8.16407 -1.17634,-2.61139 -2.27388,-5.13635 -3.33984,-7.60742 -1.06607,-2.4712 -2.06338,-4.92037 -3.06152,-7.3291 -0.99823,-2.4088 -1.99587,-4.719 -2.96875,-7.14355 -0.42343,-1.055 -0.78165,-2.1785 -1.20606,-3.24707 -2.63564,-6.18974 -5.22363,-12.32495 -8.34961,-19.66797 z"
             id="path4941" />
          <path
             inkscape:connector-curvature="0"
             style="fill:#6dc4f0;fill-opacity:1;fill-rule:evenodd;stroke:none;stroke-width:18.75743294;stroke-linecap:butt;stroke-linejoin:round;stroke-miterlimit:10;stroke-opacity:1"
             d="M 818.22607,548.55277 C 777.04464,492.65769 767.49922,447.60796 765.0814,436.85262 c 21.96737,50.6686 21.81733,51.28995 53.14467,111.70015 z"
             id="path4943"
             sodipodi:nodetypes="ccc" />
        </g>
      </g>
      <g
         style="stroke-width:0.93749708"
         id="g4953">
        <path
           sodipodi:nodetypes="cscccccccccsscsssccccscsccccscccscsccscsccscsscccssscccccssscscscccccccssccsccsccccccsccccccccccccssccccccaccccsca"
           style="fill:#1793d1;fill-opacity:1;stroke-width:0.3732833"
           d="m 423.18922,960.51365 c -0.76108,-0.0582 -1.36167,-0.13637 -2.10135,-0.27367 -4.99891,-0.9279 -8.5003,-4.06043 -9.78036,-8.75018 -0.3077,-1.12745 -0.28966,-0.34807 -0.37487,-16.18841 -0.0431,-8.04423 -0.0682,-14.63606 -0.056,-14.64853 0.0467,-0.0464 4.69632,-0.97619 4.8905,-0.97788 l 0.20209,-10e-4 0.007,7.17961 c 0.007,3.94879 0.0244,10.41649 0.0453,14.37269 0.0352,6.56804 0.0467,7.2282 0.13269,7.59719 0.71166,3.0583 2.53534,5.25903 5.20108,6.27633 1.92699,0.73535 4.5517,0.84247 7.27842,0.29702 5.46452,-1.09309 9.21972,-4.69977 10.15401,-9.75232 0.19771,-1.06917 0.19964,-1.20089 0.19052,-13.02567 -0.007,-6.3788 0,-11.59783 0.0136,-11.59783 0.0122,0 1.01921,-0.25458 2.23699,-0.56575 1.21777,-0.31116 2.27592,-0.56574 2.35142,-0.56574 h 0.13729 l -5.7e-4,0.98332 c -5.1e-4,0.54083 0.0381,9.30778 0.0856,19.48211 0.0474,10.17433 0.0748,18.51009 0.0611,18.52389 -0.0417,0.0417 -4.46234,0.93631 -4.62692,0.93631 h -0.15288 v -2.43811 c 0,-1.34095 -0.0158,-3.00237 -0.0352,-3.69203 l -0.0352,-1.25393 -0.33219,0.6343 c -0.9659,1.84462 -2.26622,3.38388 -3.8802,4.59309 -1.99747,1.49657 -4.44919,2.43272 -7.2739,2.77746 -0.82977,0.10127 -3.42466,0.14822 -4.3374,0.0785 z m 53.30099,-0.69204 c -0.17005,-0.2331 -2.98751,-4.14539 -6.26102,-8.69397 l -5.95174,-8.27016 -6.05583,8.47845 c -5.45827,7.64178 -6.06992,8.47825 -6.19837,8.47647 -0.21746,-0.003 -3.47718,-2.43683 -3.50009,-2.61326 -0.0129,-0.10041 1.4792,-2.2515 6.43429,-9.27518 3.54815,-5.02945 6.45103,-9.16995 6.45082,-9.20111 0,-0.0312 -2.72127,-3.61706 -6.04671,-7.96865 -4.64258,-6.07508 -6.04248,-7.94128 -6.02976,-8.0381 0.023,-0.17586 3.1342,-2.61293 3.33019,-2.60872 0.11379,0.002 1.0136,1.12501 5.78708,7.21991 3.10877,3.96936 5.66674,7.21614 5.68441,7.21506 0.018,-7.2e-4 2.21307,-3.11672 4.8788,-6.92367 3.86016,-5.51283 4.8701,-6.92173 4.96155,-6.92173 0.1689,0 3.44126,2.77844 3.4631,2.94041 0.0122,0.0918 -1.36326,2.06157 -5.32881,7.63017 -2.93995,4.12853 -5.34583,7.53179 -5.3464,7.5628 -5.1e-4,0.031 3.02177,4.24495 6.71619,9.3643 3.69443,5.11935 6.71714,9.35501 6.71714,9.41259 0,0.13573 -3.11158,2.6382 -3.28033,2.6382 -0.0818,0 -0.20511,-0.12316 -0.42451,-0.42381 z m -76.47725,-0.82892 c -0.007,-0.30375 -0.023,-6.75934 -0.041,-14.34575 l -0.0331,-13.79347 -0.18025,-0.5388 c -0.8271,-2.47202 -2.55955,-4.50169 -4.80781,-5.63255 -2.20789,-1.11054 -5.09145,-1.38777 -8.10647,-0.77934 -4.70566,0.94961 -8.94147,4.13826 -10.28131,7.73965 -0.38047,1.0227 -0.3587,0.0689 -0.32041,14.0279 0.0187,6.91983 0.0165,12.5815 -0.007,12.5815 -0.0223,0 -1.06346,0.26671 -2.31386,0.59269 -1.25032,0.32598 -2.32405,0.59269 -2.38598,0.59269 -0.11222,0 -0.11272,-0.009 -0.14641,-2.62669 -0.0532,-4.12605 -0.16552,-36.32344 -0.12702,-36.36196 0.0503,-0.0503 4.39811,-0.93326 4.60537,-0.93528 l 0.17508,-10e-4 v 3.75428 3.75426 l 0.2375,-0.4879 c 1.15298,-2.36896 3.09664,-4.44652 5.38722,-5.75832 2.26471,-1.297 4.72095,-1.9187 7.89934,-1.99938 3.8871,-0.0987 6.8943,0.61413 9.34831,2.2159 2.41882,1.57872 4.17468,4.05737 4.90179,6.91942 0.2995,1.17905 0.2852,0.54886 0.35288,15.52479 0.0345,7.63087 0.0546,14.18718 0.0438,14.5696 l -0.0187,0.69531 -1.9397,0.42233 c -1.06684,0.23228 -2.00638,0.42251 -2.08785,0.42272 l -0.14821,5.4e-4 -0.008,-0.55228 z m -40.09963,-4.09493 c -0.0779,-9.76544 -0.15561,-33.72336 -0.10942,-33.76581 0.1069,-0.0983 3.97719,-1.78201 4.09638,-1.78201 h 0.12787 v 19.54538 19.54537 l -1.89926,0.39122 c -1.04464,0.21517 -1.96269,0.3909 -2.04014,0.3905 l -0.14088,-7.2e-4 -0.0345,-4.32393 z m -12.39078,-6.76204 c -0.0194,-5.97874 -0.0517,-18.13427 -0.0711,-27.01228 l -0.0359,-16.14183 2.29826,-0.57467 c 1.26397,-0.31606 2.3469,-0.57466 2.40646,-0.57466 0.10661,0 0.10819,0.0331 0.10949,2.3034 7.2e-4,1.26688 0.0474,13.50472 0.10438,27.19522 0.0568,13.69049 0.0985,24.89543 0.093,24.89986 -0.0359,0.0287 -4.56865,0.7769 -4.70242,0.77623 l -0.16631,-7.2e-4 -0.0359,-10.87044 z m 12.60917,-39.21379 c -1.06605,-1.22209 -1.33373,-1.55928 -1.32008,-1.66283 0.0244,-0.18705 3.13443,-2.72584 3.33932,-2.72615 0.11947,-1.6e-4 0.36193,0.24278 1.45478,1.45778 0.96956,1.07787 1.31584,1.49813 1.32805,1.61195 0.0151,0.14185 -0.10884,0.25903 -1.57971,1.49197 -1.1195,0.93838 -1.63941,1.34133 -1.74071,1.34912 -0.12673,0.01 -0.3092,-0.17771 -1.48165,-1.52184 z"
           id="path4949"
           inkscape:connector-curvature="0" />
        <path
           inkscape:connector-curvature="0"
           id="path4951"
           d="m 329.10748,960.07031 c -0.007,-0.007 -0.0481,-6.63272 -0.0997,-14.72292 l -0.0937,-14.70944 -0.16279,-0.4147 c -0.224,-0.57046 -0.71029,-1.28044 -1.22906,-1.79441 -1.56218,-1.54774 -3.9473,-2.28465 -6.86792,-2.12195 -1.82713,0.1018 -3.47675,0.54072 -4.9441,1.31555 -2.02994,1.07185 -3.51834,2.68257 -4.00636,4.33559 l -0.11932,0.4041 -0.0453,8.99809 c -0.0244,4.94895 -0.0603,10.74442 -0.0784,12.87882 l -0.0331,3.88074 -5.01795,0.90334 c -2.75991,0.49684 -5.04431,0.90236 -5.07643,0.90118 -0.0618,-0.002 -0.13017,-22.94414 -0.13017,-43.59511 v -10.37547 l 4.97147,-1.16848 c 2.73434,-0.64266 5.06198,-1.16848 5.17255,-1.16848 h 0.20108 v 7.59381 7.59381 l -0.36373,0.30612 c -1.26297,1.06305 -2.93456,2.74713 -4.24983,4.28156 -1.12675,1.31451 -1.13875,1.29277 0.1717,0.3111 0.65016,-0.48702 1.75185,-1.29747 2.44827,-1.80101 0.69643,-0.50355 1.66269,-1.21204 2.14719,-1.57444 0.93264,-0.69746 1.48114,-1.00565 2.45926,-1.38164 1.97562,-0.75948 4.12008,-1.12046 7.08567,-1.19274 4.05464,-0.0988 7.84224,0.68175 11.14685,2.29725 3.45649,1.68973 6.14147,4.23558 6.6945,6.34757 0.10791,0.41224 0.10827,0.49131 0.0704,16.18786 -0.0208,8.70153 -0.0589,15.77358 -0.084,15.77358 -0.0251,0 -2.23721,0.38795 -4.91508,0.8621 -4.49969,0.79673 -5.03526,0.88668 -5.05222,0.84862 z M 210.46804,959.5074 c -0.57473,-0.0276 -1.75773,-0.17774 -2.50545,-0.31801 -3.42466,-0.64251 -6.42848,-2.16222 -8.61345,-4.35779 -2.51264,-2.52486 -3.90039,-5.76743 -4.24128,-9.91018 -0.0954,-1.15941 -0.0373,-3.91699 0.10173,-4.80411 0.44383,-2.83719 1.5471,-5.07304 3.42847,-6.94788 2.84885,-2.83894 7.1453,-4.43368 12.85372,-4.77098 2.44029,-0.14419 4.50012,0.0639 6.1863,0.6249 1.2547,0.41746 2.19323,0.92884 3.02213,1.64659 l 0.45281,0.39209 -0.0316,-0.67003 c -0.12809,-2.73512 -1.77576,-4.05286 -5.61573,-4.49123 -2.06665,-0.23593 -3.49729,-0.15502 -6.62734,0.37484 -2.22347,0.3764 -4.00563,0.75238 -7.12605,1.50341 -0.80771,0.19441 -1.5412,0.35348 -1.62993,0.35348 -0.14907,0 -0.16128,-0.0146 -0.16128,-0.19298 0,-0.16124 1.86593,-10.36828 1.90113,-10.39963 0.0359,-0.032 1.194,-0.3683 1.82577,-0.53019 3.25346,-0.83375 6.9129,-1.27016 10.64425,-1.26939 3.57567,7.2e-4 6.0669,0.31982 8.55511,1.09581 5.03627,1.57058 8.05445,4.94114 8.88508,9.92242 0.26358,1.58084 0.25884,1.2188 0.21732,16.70444 l -0.0388,14.44144 -4.58568,0.76844 c -2.52212,0.42264 -4.64028,0.76752 -4.70695,0.7664 -0.1212,-0.002 -0.12127,-0.002 -0.12127,-0.98553 v -0.98348 l 0.36373,-0.40556 c 1.41814,-1.58139 2.82594,-3.57534 4.44947,-6.30228 0.0618,-0.10373 -0.33355,0.2721 -0.87847,0.83515 -0.54491,0.56305 -1.81678,1.8493 -2.82644,2.85832 -1.98978,1.98865 -2.25825,2.20934 -3.68702,3.03075 -2.55431,1.46857 -5.9465,2.19085 -9.49056,2.02077 z m 4.13115,-9.63252 c 3.02544,-0.62416 5.42845,-2.29641 6.235,-4.3389 0.40066,-1.01456 0.40892,-2.16074 0.0244,-3.34061 -0.79679,-2.44321 -3.30239,-4.0969 -6.78545,-4.47825 -0.77883,-0.0853 -2.08799,-0.0324 -2.79325,0.11278 -2.54655,0.52428 -4.66687,1.96579 -5.60346,3.80954 -0.60066,1.18251 -0.66194,2.33108 -0.19346,3.62713 0.29929,0.82804 0.73342,1.46899 1.53287,2.26299 1.23552,1.22712 2.82672,2.05607 4.58396,2.38801 0.25187,0.0476 0.51862,0.098 0.59268,0.11205 0.35504,0.0673 1.77232,-0.0239 2.40696,-0.15474 z m 23.15586,-11.11441 c 0.0215,-11.40184 0.0438,-20.73511 0.0496,-20.7406 0.0187,-0.0188 9.76642,-1.68726 9.85773,-1.68726 0.0846,0 0.0912,0.21263 0.0912,2.91964 v 2.91965 l 0.16803,-0.15826 c 0.0925,-0.087 0.46223,-0.4976 0.82172,-0.91236 1.38524,-1.59809 2.32456,-2.33622 3.82661,-3.00688 2.33706,-1.04348 6.18896,-1.65167 10.47233,-1.65349 l 1.2527,-5.4e-4 v 0.12767 c 0,0.0702 -0.44578,1.17947 -0.99069,2.46504 -1.98418,4.68116 -3.29097,7.50203 -3.50168,7.55859 -0.0632,0.0169 -0.33262,0.0312 -0.59936,0.0319 -0.59018,10e-4 -1.59121,0.11733 -2.31465,0.26792 -2.43742,0.50739 -4.61054,1.6206 -6.19011,3.17097 -0.95807,0.94032 -1.55744,1.89317 -1.88719,3.00013 -0.11221,0.37668 -0.11236,0.39244 -0.12773,12.37543 l -0.0151,11.99825 -0.28212,0.0567 c -1.91657,0.38479 -10.41356,1.99816 -10.52355,1.99816 h -0.14699 l 0.0395,-20.73062 z m 41.70729,20.67082 c -3.45369,-0.25999 -6.7111,-1.11078 -9.45349,-2.46915 -0.9733,-0.48209 -1.29637,-0.66803 -2.2117,-1.27267 -1.13278,-0.74838 -1.86887,-1.34873 -2.83348,-2.31101 -1.42094,-1.4175 -2.35473,-2.67766 -3.23076,-4.36005 -1.74365,-3.34873 -2.53735,-7.08823 -2.43153,-11.45678 0.10525,-4.34504 0.87546,-7.80745 2.40933,-10.83042 2.47119,-4.87012 6.79357,-7.95053 12.88009,-9.17907 0.88005,-0.17765 1.94552,-0.3303 3.12041,-0.44709 1.1991,-0.11919 4.92801,-0.13586 6.0077,-0.0269 2.23088,0.22521 3.86663,0.55616 5.68442,1.15007 3.10425,1.0142 5.81496,2.56005 8.0148,4.57061 0.53047,0.48484 0.66,0.63167 0.66,0.74793 0,0.1138 -0.69736,0.95205 -3.26754,3.92772 -2.78298,3.222 -3.28838,3.78283 -3.40792,3.7815 -0.0974,-7.2e-4 -0.28076,-0.12668 -0.59844,-0.40991 -0.96935,-0.86433 -1.84473,-1.45081 -3.04426,-2.03966 -2.86021,-1.4041 -5.67795,-1.71244 -8.91195,-0.97522 -2.65617,0.60549 -4.7757,1.76456 -6.29894,3.44456 -1.64459,1.81387 -2.48893,4.1381 -2.48893,6.85158 0,4.06682 1.95299,7.72271 5.30969,9.9394 2.01198,1.32867 4.43072,2.01621 6.75959,1.92145 1.85221,-0.0753 3.35972,-0.4606 5.01091,-1.28058 1.52475,-0.75714 2.94211,-1.84786 3.90794,-3.00736 0.25805,-0.30977 0.34512,-0.37983 0.47199,-0.37983 0.13219,0 0.47753,0.31506 2.29259,2.09141 2.26594,2.21757 3.17868,3.09544 3.98401,3.83178 0.38823,0.35501 0.49679,0.48564 0.49679,0.59768 0,0.18768 -0.99321,1.36677 -1.83712,2.18092 -3.28615,3.17021 -7.63634,5.02842 -12.67807,5.4155 -0.81001,0.0622 -3.45677,0.0582 -4.31613,-0.006 z"
           style="fill:#ffffff;fill-opacity:1;stroke-width:0.3732833"
           sodipodi:nodetypes="csccssccccccscscssccccscsccssccssccccsscssscccsssssccsscscscscccscccccccscccsccccccsscccsscssccccccccsccccscscsssssssssccssssssccsscssccc" />
      </g>
    </g>
    <g
       style="stroke-width:0.93749708"
       transform="matrix(1.06667,0,0,1.06667,234.65609,306.49988)"
       id="g4969"
       inkscape:export-xdpi="95.999725"
       inkscape:export-ydpi="95.999725">
      <g
         transform="matrix(2.5263157,0,0,2.5263157,-1619.4906,-591.16674)"
         id="g4961"
         style="stroke-width:0.51959652">
        <g
           transform="matrix(0.25,0,0,0.25,502.3126,469.21738)"
           id="g4959"
           style="stroke-width:0.51959652">
          <path
             id="path4957"
             transform="matrix(0.7421875,0,0,0.7421875,669.75015,435.62318)"
             d="M 128,0 C 116.60518,27.937051 109.68663,46.237163 97,73.34375 104.7785,81.588957 114.33826,91.155503 129.84375,102 113.17383,95.140423 101.81018,88.271496 93.3125,81.125 77.076039,115.00489 51.621645,163.24639 0,256 c 40.562707,-23.41756 72.007597,-37.86167 101.3125,-43.375 -1.25376,-5.40435 -1.923505,-11.27752 -1.875,-17.375 l 0.03125,-1.28125 c 0.64379,-25.99398 14.16934,-45.98224 30.1875,-44.625 16.01815,1.35723 28.48754,23.53727 27.84375,49.53125 -0.12127,4.89622 -0.6905,9.60082 -1.65625,13.96875 C 184.83328,218.51691 215.98162,232.89667 256,256 c -7.89193,-14.52962 -14.96051,-27.61983 -21.6875,-40.09375 -10.59609,-8.21269 -21.64301,-18.89743 -44.1875,-30.46875 15.4958,4.02645 26.60184,8.6825 35.25,13.875 C 156.97985,71.972668 151.45422,55.040376 128,0 Z"
             style="fill:#ffffff;fill-opacity:1;fill-rule:evenodd;stroke:none;stroke-width:0.51959652;stroke-linecap:round;stroke-linejoin:round;stroke-miterlimit:10;stroke-dasharray:none;stroke-opacity:1"
             inkscape:connector-curvature="0" />
        </g>
      </g>
      <g
         style="stroke-width:0.93749708"
         id="g4967">
        <path
           inkscape:connector-curvature="0"
           id="path4963"
           d="m 423.18922,960.51365 c -0.76108,-0.0582 -1.36167,-0.13637 -2.10135,-0.27367 -4.99891,-0.9279 -8.5003,-4.06043 -9.78036,-8.75018 -0.3077,-1.12745 -0.28966,-0.34807 -0.37487,-16.18841 -0.0431,-8.04423 -0.0682,-14.63606 -0.056,-14.64853 0.0467,-0.0464 4.69632,-0.97619 4.8905,-0.97788 l 0.20209,-10e-4 0.007,7.17961 c 0.007,3.94879 0.0244,10.41649 0.0453,14.37269 0.0352,6.56804 0.0467,7.2282 0.13269,7.59719 0.71166,3.0583 2.53534,5.25903 5.20108,6.27633 1.92699,0.73535 4.5517,0.84247 7.27842,0.29702 5.46452,-1.09309 9.21972,-4.69977 10.15401,-9.75232 0.19771,-1.06917 0.19964,-1.20089 0.19052,-13.02567 -0.007,-6.3788 0,-11.59783 0.0136,-11.59783 0.0122,0 1.01921,-0.25458 2.23699,-0.56575 1.21777,-0.31116 2.27592,-0.56574 2.35142,-0.56574 h 0.13729 l -5.7e-4,0.98332 c -5.1e-4,0.54083 0.0381,9.30778 0.0856,19.48211 0.0474,10.17433 0.0748,18.51009 0.0611,18.52389 -0.0417,0.0417 -4.46234,0.93631 -4.62692,0.93631 h -0.15288 v -2.43811 c 0,-1.34095 -0.0158,-3.00237 -0.0352,-3.69203 l -0.0352,-1.25393 -0.33219,0.6343 c -0.9659,1.84462 -2.26622,3.38388 -3.8802,4.59309 -1.99747,1.49657 -4.44919,2.43272 -7.2739,2.77746 -0.82977,0.10127 -3.42466,0.14822 -4.3374,0.0785 z m 53.30099,-0.69204 c -0.17005,-0.2331 -2.98751,-4.14539 -6.26102,-8.69397 l -5.95174,-8.27016 -6.05583,8.47845 c -5.45827,7.64178 -6.06992,8.47825 -6.19837,8.47647 -0.21746,-0.003 -3.47718,-2.43683 -3.50009,-2.61326 -0.0129,-0.10041 1.4792,-2.2515 6.43429,-9.27518 3.54815,-5.02945 6.45103,-9.16995 6.45082,-9.20111 0,-0.0312 -2.72127,-3.61706 -6.04671,-7.96865 -4.64258,-6.07508 -6.04248,-7.94128 -6.02976,-8.0381 0.023,-0.17586 3.1342,-2.61293 3.33019,-2.60872 0.11379,0.002 1.0136,1.12501 5.78708,7.21991 3.10877,3.96936 5.66674,7.21614 5.68441,7.21506 0.018,-7.2e-4 2.21307,-3.11672 4.8788,-6.92367 3.86016,-5.51283 4.8701,-6.92173 4.96155,-6.92173 0.1689,0 3.44126,2.77844 3.4631,2.94041 0.0122,0.0918 -1.36326,2.06157 -5.32881,7.63017 -2.93995,4.12853 -5.34583,7.53179 -5.3464,7.5628 -5.1e-4,0.031 3.02177,4.24495 6.71619,9.3643 3.69443,5.11935 6.71714,9.35501 6.71714,9.41259 0,0.13573 -3.11158,2.6382 -3.28033,2.6382 -0.0818,0 -0.20511,-0.12316 -0.42451,-0.42381 z m -76.47725,-0.82892 c -0.007,-0.30375 -0.023,-6.75934 -0.041,-14.34575 l -0.0331,-13.79347 -0.18025,-0.5388 c -0.8271,-2.47202 -2.55955,-4.50169 -4.80781,-5.63255 -2.20789,-1.11054 -5.09145,-1.38777 -8.10647,-0.77934 -4.70566,0.94961 -8.94147,4.13826 -10.28131,7.73965 -0.38047,1.0227 -0.3587,0.0689 -0.32041,14.0279 0.0187,6.91983 0.0165,12.5815 -0.007,12.5815 -0.0223,0 -1.06346,0.26671 -2.31386,0.59269 -1.25032,0.32598 -2.32405,0.59269 -2.38598,0.59269 -0.11222,0 -0.11272,-0.009 -0.14641,-2.62669 -0.0532,-4.12605 -0.16552,-36.32344 -0.12702,-36.36196 0.0503,-0.0503 4.39811,-0.93326 4.60537,-0.93528 l 0.17508,-10e-4 v 3.75428 3.75426 l 0.2375,-0.4879 c 1.15298,-2.36896 3.09664,-4.44652 5.38722,-5.75832 2.26471,-1.297 4.72095,-1.9187 7.89934,-1.99938 3.8871,-0.0987 6.8943,0.61413 9.34831,2.2159 2.41882,1.57872 4.17468,4.05737 4.90179,6.91942 0.2995,1.17905 0.2852,0.54886 0.35288,15.52479 0.0345,7.63087 0.0546,14.18718 0.0438,14.5696 l -0.0187,0.69531 -1.9397,0.42233 c -1.06684,0.23228 -2.00638,0.42251 -2.08785,0.42272 l -0.14821,5.4e-4 -0.008,-0.55228 z m -40.09963,-4.09493 c -0.0779,-9.76544 -0.15561,-33.72336 -0.10942,-33.76581 0.1069,-0.0983 3.97719,-1.78201 4.09638,-1.78201 h 0.12787 v 19.54538 19.54537 l -1.89926,0.39122 c -1.04464,0.21517 -1.96269,0.3909 -2.04014,0.3905 l -0.14088,-7.2e-4 -0.0345,-4.32393 z m -12.39078,-6.76204 c -0.0194,-5.97874 -0.0517,-18.13427 -0.0711,-27.01228 l -0.0359,-16.14183 2.29826,-0.57467 c 1.26397,-0.31606 2.3469,-0.57466 2.40646,-0.57466 0.10661,0 0.10819,0.0331 0.10949,2.3034 7.2e-4,1.26688 0.0474,13.50472 0.10438,27.19522 0.0568,13.69049 0.0985,24.89543 0.093,24.89986 -0.0359,0.0287 -4.56865,0.7769 -4.70242,0.77623 l -0.16631,-7.2e-4 -0.0359,-10.87044 z m 12.60917,-39.21379 c -1.06605,-1.22209 -1.33373,-1.55928 -1.32008,-1.66283 0.0244,-0.18705 3.13443,-2.72584 3.33932,-2.72615 0.11947,-1.6e-4 0.36193,0.24278 1.45478,1.45778 0.96956,1.07787 1.31584,1.49813 1.32805,1.61195 0.0151,0.14185 -0.10884,0.25903 -1.57971,1.49197 -1.1195,0.93838 -1.63941,1.34133 -1.74071,1.34912 -0.12673,0.01 -0.3092,-0.17771 -1.48165,-1.52184 z"
           style="fill:#ffffff;fill-opacity:1;stroke-width:0.3732833"
           sodipodi:nodetypes="cscccccccccsscsssccccscsccccscccscsccscsccscsscccssscccccssscscscccccccssccsccsccccccsccccccccccccssccccccaccccsca" />
        <path
           sodipodi:nodetypes="csccssccccccscscssccccscsccssccssccccsscssscccsssssccsscscscscccscccccccscccsccccccsscccsscssccccccccsccccscscsssssssssccssssssccsscssccc"
           style="fill:#ffffff;fill-opacity:1;stroke-width:0.3732833"
           d="m 329.10748,960.07031 c -0.007,-0.007 -0.0481,-6.63272 -0.0997,-14.72292 l -0.0937,-14.70944 -0.16279,-0.4147 c -0.224,-0.57046 -0.71029,-1.28044 -1.22906,-1.79441 -1.56218,-1.54774 -3.9473,-2.28465 -6.86792,-2.12195 -1.82713,0.1018 -3.47675,0.54072 -4.9441,1.31555 -2.02994,1.07185 -3.51834,2.68257 -4.00636,4.33559 l -0.11932,0.4041 -0.0453,8.99809 c -0.0244,4.94895 -0.0603,10.74442 -0.0784,12.87882 l -0.0331,3.88074 -5.01795,0.90334 c -2.75991,0.49684 -5.04431,0.90236 -5.07643,0.90118 -0.0618,-0.002 -0.13017,-22.94414 -0.13017,-43.59511 v -10.37547 l 4.97147,-1.16848 c 2.73434,-0.64266 5.06198,-1.16848 5.17255,-1.16848 h 0.20108 v 7.59381 7.59381 l -0.36373,0.30612 c -1.26297,1.06305 -2.93456,2.74713 -4.24983,4.28156 -1.12675,1.31451 -1.13875,1.29277 0.1717,0.3111 0.65016,-0.48702 1.75185,-1.29747 2.44827,-1.80101 0.69643,-0.50355 1.66269,-1.21204 2.14719,-1.57444 0.93264,-0.69746 1.48114,-1.00565 2.45926,-1.38164 1.97562,-0.75948 4.12008,-1.12046 7.08567,-1.19274 4.05464,-0.0988 7.84224,0.68175 11.14685,2.29725 3.45649,1.68973 6.14147,4.23558 6.6945,6.34757 0.10791,0.41224 0.10827,0.49131 0.0704,16.18786 -0.0208,8.70153 -0.0589,15.77358 -0.084,15.77358 -0.0251,0 -2.23721,0.38795 -4.91508,0.8621 -4.49969,0.79673 -5.03526,0.88668 -5.05222,0.84862 z M 210.46804,959.5074 c -0.57473,-0.0276 -1.75773,-0.17774 -2.50545,-0.31801 -3.42466,-0.64251 -6.42848,-2.16222 -8.61345,-4.35779 -2.51264,-2.52486 -3.90039,-5.76743 -4.24128,-9.91018 -0.0954,-1.15941 -0.0373,-3.91699 0.10173,-4.80411 0.44383,-2.83719 1.5471,-5.07304 3.42847,-6.94788 2.84885,-2.83894 7.1453,-4.43368 12.85372,-4.77098 2.44029,-0.14419 4.50012,0.0639 6.1863,0.6249 1.2547,0.41746 2.19323,0.92884 3.02213,1.64659 l 0.45281,0.39209 -0.0316,-0.67003 c -0.12809,-2.73512 -1.77576,-4.05286 -5.61573,-4.49123 -2.06665,-0.23593 -3.49729,-0.15502 -6.62734,0.37484 -2.22347,0.3764 -4.00563,0.75238 -7.12605,1.50341 -0.80771,0.19441 -1.5412,0.35348 -1.62993,0.35348 -0.14907,0 -0.16128,-0.0146 -0.16128,-0.19298 0,-0.16124 1.86593,-10.36828 1.90113,-10.39963 0.0359,-0.032 1.194,-0.3683 1.82577,-0.53019 3.25346,-0.83375 6.9129,-1.27016 10.64425,-1.26939 3.57567,7.2e-4 6.0669,0.31982 8.55511,1.09581 5.03627,1.57058 8.05445,4.94114 8.88508,9.92242 0.26358,1.58084 0.25884,1.2188 0.21732,16.70444 l -0.0388,14.44144 -4.58568,0.76844 c -2.52212,0.42264 -4.64028,0.76752 -4.70695,0.7664 -0.1212,-0.002 -0.12127,-0.002 -0.12127,-0.98553 v -0.98348 l 0.36373,-0.40556 c 1.41814,-1.58139 2.82594,-3.57534 4.44947,-6.30228 0.0618,-0.10373 -0.33355,0.2721 -0.87847,0.83515 -0.54491,0.56305 -1.81678,1.8493 -2.82644,2.85832 -1.98978,1.98865 -2.25825,2.20934 -3.68702,3.03075 -2.55431,1.46857 -5.9465,2.19085 -9.49056,2.02077 z m 4.13115,-9.63252 c 3.02544,-0.62416 5.42845,-2.29641 6.235,-4.3389 0.40066,-1.01456 0.40892,-2.16074 0.0244,-3.34061 -0.79679,-2.44321 -3.30239,-4.0969 -6.78545,-4.47825 -0.77883,-0.0853 -2.08799,-0.0324 -2.79325,0.11278 -2.54655,0.52428 -4.66687,1.96579 -5.60346,3.80954 -0.60066,1.18251 -0.66194,2.33108 -0.19346,3.62713 0.29929,0.82804 0.73342,1.46899 1.53287,2.26299 1.23552,1.22712 2.82672,2.05607 4.58396,2.38801 0.25187,0.0476 0.51862,0.098 0.59268,0.11205 0.35504,0.0673 1.77232,-0.0239 2.40696,-0.15474 z m 23.15586,-11.11441 c 0.0215,-11.40184 0.0438,-20.73511 0.0496,-20.7406 0.0187,-0.0188 9.76642,-1.68726 9.85773,-1.68726 0.0846,0 0.0912,0.21263 0.0912,2.91964 v 2.91965 l 0.16803,-0.15826 c 0.0925,-0.087 0.46223,-0.4976 0.82172,-0.91236 1.38524,-1.59809 2.32456,-2.33622 3.82661,-3.00688 2.33706,-1.04348 6.18896,-1.65167 10.47233,-1.65349 l 1.2527,-5.4e-4 v 0.12767 c 0,0.0702 -0.44578,1.17947 -0.99069,2.46504 -1.98418,4.68116 -3.29097,7.50203 -3.50168,7.55859 -0.0632,0.0169 -0.33262,0.0312 -0.59936,0.0319 -0.59018,10e-4 -1.59121,0.11733 -2.31465,0.26792 -2.43742,0.50739 -4.61054,1.6206 -6.19011,3.17097 -0.95807,0.94032 -1.55744,1.89317 -1.88719,3.00013 -0.11221,0.37668 -0.11236,0.39244 -0.12773,12.37543 l -0.0151,11.99825 -0.28212,0.0567 c -1.91657,0.38479 -10.41356,1.99816 -10.52355,1.99816 h -0.14699 l 0.0395,-20.73062 z m 41.70729,20.67082 c -3.45369,-0.25999 -6.7111,-1.11078 -9.45349,-2.46915 -0.9733,-0.48209 -1.29637,-0.66803 -2.2117,-1.27267 -1.13278,-0.74838 -1.86887,-1.34873 -2.83348,-2.31101 -1.42094,-1.4175 -2.35473,-2.67766 -3.23076,-4.36005 -1.74365,-3.34873 -2.53735,-7.08823 -2.43153,-11.45678 0.10525,-4.34504 0.87546,-7.80745 2.40933,-10.83042 2.47119,-4.87012 6.79357,-7.95053 12.88009,-9.17907 0.88005,-0.17765 1.94552,-0.3303 3.12041,-0.44709 1.1991,-0.11919 4.92801,-0.13586 6.0077,-0.0269 2.23088,0.22521 3.86663,0.55616 5.68442,1.15007 3.10425,1.0142 5.81496,2.56005 8.0148,4.57061 0.53047,0.48484 0.66,0.63167 0.66,0.74793 0,0.1138 -0.69736,0.95205 -3.26754,3.92772 -2.78298,3.222 -3.28838,3.78283 -3.40792,3.7815 -0.0974,-7.2e-4 -0.28076,-0.12668 -0.59844,-0.40991 -0.96935,-0.86433 -1.84473,-1.45081 -3.04426,-2.03966 -2.86021,-1.4041 -5.67795,-1.71244 -8.91195,-0.97522 -2.65617,0.60549 -4.7757,1.76456 -6.29894,3.44456 -1.64459,1.81387 -2.48893,4.1381 -2.48893,6.85158 0,4.06682 1.95299,7.72271 5.30969,9.9394 2.01198,1.32867 4.43072,2.01621 6.75959,1.92145 1.85221,-0.0753 3.35972,-0.4606 5.01091,-1.28058 1.52475,-0.75714 2.94211,-1.84786 3.90794,-3.00736 0.25805,-0.30977 0.34512,-0.37983 0.47199,-0.37983 0.13219,0 0.47753,0.31506 2.29259,2.09141 2.26594,2.21757 3.17868,3.09544 3.98401,3.83178 0.38823,0.35501 0.49679,0.48564 0.49679,0.59768 0,0.18768 -0.99321,1.36677 -1.83712,2.18092 -3.28615,3.17021 -7.63634,5.02842 -12.67807,5.4155 -0.81001,0.0622 -3.45677,0.0582 -4.31613,-0.006 z"
           id="path4965"
           inkscape:connector-curvature="0" />
      </g>
    </g>
    <g
       transform="matrix(2.0000063,0,0,2.0000063,-227.03732,-85.420519)"
       id="g4981"
       inkscape:label="Layer 1"
       style="stroke-width:0.51959652"
       inkscape:export-xdpi="95.999725"
       inkscape:export-ydpi="95.999725">
      <g
         transform="matrix(1.3473684,0,0,1.3473684,-632.88236,-513.34366)"
         id="g4979"
         style="stroke-width:0.51959652">
        <g
           transform="matrix(0.25,0,0,0.25,502.3126,469.21738)"
           id="g4977"
           style="stroke-width:0.51959652">
          <path
             id="path4971"
             transform="matrix(0.7421875,0,0,0.7421875,669.75015,435.62318)"
             d="M 128,0 C 116.60518,27.937051 109.68663,46.237163 97,73.34375 104.7785,81.588957 114.33826,91.155503 129.84375,102 113.17383,95.140423 101.81018,88.271496 93.3125,81.125 77.076039,115.00489 51.621645,163.24639 0,256 c 40.562707,-23.41756 72.007597,-37.86167 101.3125,-43.375 -1.25376,-5.40435 -1.923505,-11.27752 -1.875,-17.375 l 0.03125,-1.28125 c 0.64379,-25.99398 14.16934,-45.98224 30.1875,-44.625 16.01815,1.35723 28.48754,23.53727 27.84375,49.53125 -0.12127,4.89622 -0.6905,9.60082 -1.65625,13.96875 C 184.83328,218.51691 215.98162,232.89667 256,256 c -7.89193,-14.52962 -14.96051,-27.61983 -21.6875,-40.09375 -10.59609,-8.21269 -21.64301,-18.89743 -44.1875,-30.46875 15.4958,4.02645 26.60184,8.6825 35.25,13.875 C 156.97985,71.972668 151.45422,55.040376 128,0 Z"
             style="fill:#cccccc;fill-opacity:1;fill-rule:evenodd;stroke:none;stroke-width:0.51959652;stroke-linecap:round;stroke-linejoin:round;stroke-miterlimit:10;stroke-dasharray:none;stroke-opacity:1"
             inkscape:connector-curvature="0" />
          <path
             id="path4973"
             d="m 765.12124,436.36538 c -1.06809,2.62569 -2.07571,5.18569 -3.06152,7.60742 -1.08115,2.65585 -2.13247,5.21447 -3.1543,7.70019 -1.02175,2.48575 -2.05759,4.84198 -3.06152,7.23633 -1.00399,2.39446 -1.9411,4.7617 -2.96875,7.14356 -1.02758,2.38177 -2.15434,4.78844 -3.24707,7.23632 -1.09273,2.44796 -2.23335,4.92185 -3.43262,7.51465 -1.19937,2.59282 -2.45641,5.34774 -3.80371,8.16407 -0.18273,0.38196 -0.37075,0.81915 -0.55664,1.20605 5.75763,6.09886 12.85563,13.14354 24.30664,21.15234 -12.3722,-5.09109 -20.78297,-10.18912 -27.08984,-15.49316 -0.32869,0.67104 -0.58906,1.26104 -0.92774,1.94824 -1.24721,2.58455 -2.58439,5.14414 -3.98925,7.97852 -0.33495,0.66595 -0.58339,1.26662 -0.92774,1.94824 -1.485,2.98035 -3.04573,6.06522 -4.73144,9.37012 -0.33426,0.65055 -0.6781,1.19104 -1.02051,1.85547 -1.02029,1.97964 -4.27491,8.22324 -7.60742,14.56543 -1.94316,3.70493 -3.46894,6.73989 -5.65918,10.85449 -0.62086,1.18197 -1.8984,3.54789 -2.22657,4.1748 24.12062,-13.57765 50.143,-33.2992 97.41211,-16.4209 -2.36708,-4.48319 -4.63595,-8.66436 -6.67968,-12.61718 -2.0437,-3.95294 -3.89608,-7.63232 -5.65918,-11.13282 -1.76296,-3.50043 -3.39212,-6.80069 -4.917,-9.92675 -1.52486,-3.12599 -2.93832,-6.07649 -4.26757,-8.90625 -1.32933,-2.8297 -2.62746,-5.55264 -3.80372,-8.16407 -1.17634,-2.61139 -2.27388,-5.13635 -3.33984,-7.60742 -1.06607,-2.4712 -2.06338,-4.92037 -3.06152,-7.3291 -0.99823,-2.4088 -1.99587,-4.719 -2.96875,-7.14355 -0.42343,-1.055 -0.78165,-2.1785 -1.20606,-3.24707 -2.63564,-6.18974 -5.22363,-12.32495 -8.34961,-19.66797 z"
             style="fill:#e6e6e6;fill-opacity:1;fill-rule:evenodd;stroke:none;stroke-width:0.37107864;stroke-linecap:round;stroke-linejoin:round;stroke-miterlimit:10;stroke-dasharray:none;stroke-opacity:1"
             inkscape:connector-curvature="0" />
          <path
             sodipodi:nodetypes="ccc"
             id="path4975"
             d="M 818.22607,548.55277 C 777.04464,492.65769 767.49922,447.60796 765.0814,436.85262 c 21.96737,50.6686 21.81733,51.28995 53.14467,111.70015 z"
             style="fill:#ffffff;fill-opacity:1;fill-rule:evenodd;stroke:none;stroke-width:18.75743294;stroke-linecap:butt;stroke-linejoin:round;stroke-miterlimit:10;stroke-opacity:1"
             inkscape:connector-curvature="0" />
        </g>
      </g>
    </g>
    <g
       style="stroke-width:0.51959652"
       inkscape:label="Layer 1"
       id="g4993"
       transform="matrix(2.0000063,0,0,2.0000063,-227.03732,229.79192)"
       inkscape:export-xdpi="95.999725"
       inkscape:export-ydpi="95.999725">
      <g
         style="stroke-width:0.51959652"
         id="g4991"
         transform="matrix(1.3473684,0,0,1.3473684,-632.88236,-513.34366)">
        <g
           style="stroke-width:0.51959652"
           id="g4989"
           transform="matrix(0.25,0,0,0.25,502.3126,469.21738)">
          <path
             inkscape:connector-curvature="0"
             style="fill:#ffffff;fill-opacity:1;fill-rule:evenodd;stroke:none;stroke-width:0.51959652;stroke-linecap:round;stroke-linejoin:round;stroke-miterlimit:10;stroke-dasharray:none;stroke-opacity:1"
             d="M 128,0 C 116.60518,27.937051 109.68663,46.237163 97,73.34375 104.7785,81.588957 114.33826,91.155503 129.84375,102 113.17383,95.140423 101.81018,88.271496 93.3125,81.125 77.076039,115.00489 51.621645,163.24639 0,256 c 40.562707,-23.41756 72.007597,-37.86167 101.3125,-43.375 -1.25376,-5.40435 -1.923505,-11.27752 -1.875,-17.375 l 0.03125,-1.28125 c 0.64379,-25.99398 14.16934,-45.98224 30.1875,-44.625 16.01815,1.35723 28.48754,23.53727 27.84375,49.53125 -0.12127,4.89622 -0.6905,9.60082 -1.65625,13.96875 C 184.83328,218.51691 215.98162,232.89667 256,256 c -7.89193,-14.52962 -14.96051,-27.61983 -21.6875,-40.09375 -10.59609,-8.21269 -21.64301,-18.89743 -44.1875,-30.46875 15.4958,4.02645 26.60184,8.6825 35.25,13.875 C 156.97985,71.972668 151.45422,55.040376 128,0 Z"
             transform="matrix(0.7421875,0,0,0.7421875,669.75015,435.62318)"
             id="path4983" />
          <path
             inkscape:connector-curvature="0"
             style="fill:#e6e6e6;fill-opacity:1;fill-rule:evenodd;stroke:none;stroke-width:0.37107864;stroke-linecap:round;stroke-linejoin:round;stroke-miterlimit:10;stroke-dasharray:none;stroke-opacity:1"
             d="m 765.12124,436.36538 c -1.06809,2.62569 -2.07571,5.18569 -3.06152,7.60742 -1.08115,2.65585 -2.13247,5.21447 -3.1543,7.70019 -1.02175,2.48575 -2.05759,4.84198 -3.06152,7.23633 -1.00399,2.39446 -1.9411,4.7617 -2.96875,7.14356 -1.02758,2.38177 -2.15434,4.78844 -3.24707,7.23632 -1.09273,2.44796 -2.23335,4.92185 -3.43262,7.51465 -1.19937,2.59282 -2.45641,5.34774 -3.80371,8.16407 -0.18273,0.38196 -0.37075,0.81915 -0.55664,1.20605 5.75763,6.09886 12.85563,13.14354 24.30664,21.15234 -12.3722,-5.09109 -20.78297,-10.18912 -27.08984,-15.49316 -0.32869,0.67104 -0.58906,1.26104 -0.92774,1.94824 -1.24721,2.58455 -2.58439,5.14414 -3.98925,7.97852 -0.33495,0.66595 -0.58339,1.26662 -0.92774,1.94824 -1.485,2.98035 -3.04573,6.06522 -4.73144,9.37012 -0.33426,0.65055 -0.6781,1.19104 -1.02051,1.85547 -1.02029,1.97964 -4.27491,8.22324 -7.60742,14.56543 -1.94316,3.70493 -3.46894,6.73989 -5.65918,10.85449 -0.62086,1.18197 -1.8984,3.54789 -2.22657,4.1748 24.12062,-13.57765 50.143,-33.2992 97.41211,-16.4209 -2.36708,-4.48319 -4.63595,-8.66436 -6.67968,-12.61718 -2.0437,-3.95294 -3.89608,-7.63232 -5.65918,-11.13282 -1.76296,-3.50043 -3.39212,-6.80069 -4.917,-9.92675 -1.52486,-3.12599 -2.93832,-6.07649 -4.26757,-8.90625 -1.32933,-2.8297 -2.62746,-5.55264 -3.80372,-8.16407 -1.17634,-2.61139 -2.27388,-5.13635 -3.33984,-7.60742 -1.06607,-2.4712 -2.06338,-4.92037 -3.06152,-7.3291 -0.99823,-2.4088 -1.99587,-4.719 -2.96875,-7.14355 -0.42343,-1.055 -0.78165,-2.1785 -1.20606,-3.24707 -2.63564,-6.18974 -5.22363,-12.32495 -8.34961,-19.66797 z"
             id="path4985" />
          <path
             inkscape:connector-curvature="0"
             style="fill:#cccccc;fill-opacity:1;fill-rule:evenodd;stroke:none;stroke-width:18.75743294;stroke-linecap:butt;stroke-linejoin:round;stroke-miterlimit:10;stroke-opacity:1"
             d="M 818.22607,548.55277 C 777.04464,492.65769 767.49922,447.60796 765.0814,436.85262 c 21.96737,50.6686 21.81733,51.28995 53.14467,111.70015 z"
             id="path4987"
             sodipodi:nodetypes="ccc" />
        </g>
      </g>
    </g>
    <g
       style="stroke-width:0.93749708"
       transform="matrix(1.06667,0,0,1.06667,234.65609,-323.92492)"
       id="g5011"
       inkscape:export-xdpi="95.999725"
       inkscape:export-ydpi="95.999725">
      <g
         transform="matrix(2.5263157,0,0,2.5263157,-1619.4906,-591.16674)"
         id="g5003"
         style="stroke-width:0.51959652">
        <g
           transform="matrix(0.25,0,0,0.25,502.3126,469.21738)"
           id="g5001"
           style="stroke-width:0.51959652">
          <path
             id="path4995"
             transform="matrix(0.7421875,0,0,0.7421875,669.75015,435.62318)"
             d="M 128,0 C 116.60518,27.937051 109.68663,46.237163 97,73.34375 104.7785,81.588957 114.33826,91.155503 129.84375,102 113.17383,95.140423 101.81018,88.271496 93.3125,81.125 77.076039,115.00489 51.621645,163.24639 0,256 c 40.562707,-23.41756 72.007597,-37.86167 101.3125,-43.375 -1.25376,-5.40435 -1.923505,-11.27752 -1.875,-17.375 l 0.03125,-1.28125 c 0.64379,-25.99398 14.16934,-45.98224 30.1875,-44.625 16.01815,1.35723 28.48754,23.53727 27.84375,49.53125 -0.12127,4.89622 -0.6905,9.60082 -1.65625,13.96875 C 184.83328,218.51691 215.98162,232.89667 256,256 c -7.89193,-14.52962 -14.96051,-27.61983 -21.6875,-40.09375 -10.59609,-8.21269 -21.64301,-18.89743 -44.1875,-30.46875 15.4958,4.02645 26.60184,8.6825 35.25,13.875 C 156.97985,71.972668 151.45422,55.040376 128,0 Z"
             style="fill:#cccccc;fill-opacity:1;fill-rule:evenodd;stroke:none;stroke-width:0.51959652;stroke-linecap:round;stroke-linejoin:round;stroke-miterlimit:10;stroke-dasharray:none;stroke-opacity:1"
             inkscape:connector-curvature="0" />
          <path
             id="path4997"
             d="m 765.12124,436.36538 c -1.06809,2.62569 -2.07571,5.18569 -3.06152,7.60742 -1.08115,2.65585 -2.13247,5.21447 -3.1543,7.70019 -1.02175,2.48575 -2.05759,4.84198 -3.06152,7.23633 -1.00399,2.39446 -1.9411,4.7617 -2.96875,7.14356 -1.02758,2.38177 -2.15434,4.78844 -3.24707,7.23632 -1.09273,2.44796 -2.23335,4.92185 -3.43262,7.51465 -1.19937,2.59282 -2.45641,5.34774 -3.80371,8.16407 -0.18273,0.38196 -0.37075,0.81915 -0.55664,1.20605 5.75763,6.09886 12.85563,13.14354 24.30664,21.15234 -12.3722,-5.09109 -20.78297,-10.18912 -27.08984,-15.49316 -0.32869,0.67104 -0.58906,1.26104 -0.92774,1.94824 -1.24721,2.58455 -2.58439,5.14414 -3.98925,7.97852 -0.33495,0.66595 -0.58339,1.26662 -0.92774,1.94824 -1.485,2.98035 -3.04573,6.06522 -4.73144,9.37012 -0.33426,0.65055 -0.6781,1.19104 -1.02051,1.85547 -1.02029,1.97964 -4.27491,8.22324 -7.60742,14.56543 -1.94316,3.70493 -3.46894,6.73989 -5.65918,10.85449 -0.62086,1.18197 -1.8984,3.54789 -2.22657,4.1748 24.12062,-13.57765 50.143,-33.2992 97.41211,-16.4209 -2.36708,-4.48319 -4.63595,-8.66436 -6.67968,-12.61718 -2.0437,-3.95294 -3.89608,-7.63232 -5.65918,-11.13282 -1.76296,-3.50043 -3.39212,-6.80069 -4.917,-9.92675 -1.52486,-3.12599 -2.93832,-6.07649 -4.26757,-8.90625 -1.32933,-2.8297 -2.62746,-5.55264 -3.80372,-8.16407 -1.17634,-2.61139 -2.27388,-5.13635 -3.33984,-7.60742 -1.06607,-2.4712 -2.06338,-4.92037 -3.06152,-7.3291 -0.99823,-2.4088 -1.99587,-4.719 -2.96875,-7.14355 -0.42343,-1.055 -0.78165,-2.1785 -1.20606,-3.24707 -2.63564,-6.18974 -5.22363,-12.32495 -8.34961,-19.66797 z"
             style="fill:#e6e6e6;fill-opacity:1;fill-rule:evenodd;stroke:none;stroke-width:0.37107861;stroke-linecap:round;stroke-linejoin:round;stroke-miterlimit:10;stroke-dasharray:none;stroke-opacity:1"
             inkscape:connector-curvature="0" />
          <path
             sodipodi:nodetypes="ccc"
             id="path4999"
             d="M 818.22607,548.55277 C 777.04464,492.65769 767.49922,447.60796 765.0814,436.85262 c 21.96737,50.6686 21.81733,51.28995 53.14467,111.70015 z"
             style="fill:#ffffff;fill-opacity:1;fill-rule:evenodd;stroke:none;stroke-width:18.75743294;stroke-linecap:butt;stroke-linejoin:round;stroke-miterlimit:10;stroke-opacity:1"
             inkscape:connector-curvature="0" />
        </g>
      </g>
      <g
         style="stroke-width:0.93749708"
         id="g5009">
        <path
           inkscape:connector-curvature="0"
           id="path5005"
           d="m 423.18922,960.51365 c -0.76108,-0.0582 -1.36167,-0.13637 -2.10135,-0.27367 -4.99891,-0.9279 -8.5003,-4.06043 -9.78036,-8.75018 -0.3077,-1.12745 -0.28966,-0.34807 -0.37487,-16.18841 -0.0431,-8.04423 -0.0682,-14.63606 -0.056,-14.64853 0.0467,-0.0464 4.69632,-0.97619 4.8905,-0.97788 l 0.20209,-10e-4 0.007,7.17961 c 0.007,3.94879 0.0244,10.41649 0.0453,14.37269 0.0352,6.56804 0.0467,7.2282 0.13269,7.59719 0.71166,3.0583 2.53534,5.25903 5.20108,6.27633 1.92699,0.73535 4.5517,0.84247 7.27842,0.29702 5.46452,-1.09309 9.21972,-4.69977 10.15401,-9.75232 0.19771,-1.06917 0.19964,-1.20089 0.19052,-13.02567 -0.007,-6.3788 0,-11.59783 0.0136,-11.59783 0.0122,0 1.01921,-0.25458 2.23699,-0.56575 1.21777,-0.31116 2.27592,-0.56574 2.35142,-0.56574 h 0.13729 l -5.7e-4,0.98332 c -5.1e-4,0.54083 0.0381,9.30778 0.0856,19.48211 0.0474,10.17433 0.0748,18.51009 0.0611,18.52389 -0.0417,0.0417 -4.46234,0.93631 -4.62692,0.93631 h -0.15288 v -2.43811 c 0,-1.34095 -0.0158,-3.00237 -0.0352,-3.69203 l -0.0352,-1.25393 -0.33219,0.6343 c -0.9659,1.84462 -2.26622,3.38388 -3.8802,4.59309 -1.99747,1.49657 -4.44919,2.43272 -7.2739,2.77746 -0.82977,0.10127 -3.42466,0.14822 -4.3374,0.0785 z m 53.30099,-0.69204 c -0.17005,-0.2331 -2.98751,-4.14539 -6.26102,-8.69397 l -5.95174,-8.27016 -6.05583,8.47845 c -5.45827,7.64178 -6.06992,8.47825 -6.19837,8.47647 -0.21746,-0.003 -3.47718,-2.43683 -3.50009,-2.61326 -0.0129,-0.10041 1.4792,-2.2515 6.43429,-9.27518 3.54815,-5.02945 6.45103,-9.16995 6.45082,-9.20111 0,-0.0312 -2.72127,-3.61706 -6.04671,-7.96865 -4.64258,-6.07508 -6.04248,-7.94128 -6.02976,-8.0381 0.023,-0.17586 3.1342,-2.61293 3.33019,-2.60872 0.11379,0.002 1.0136,1.12501 5.78708,7.21991 3.10877,3.96936 5.66674,7.21614 5.68441,7.21506 0.018,-7.2e-4 2.21307,-3.11672 4.8788,-6.92367 3.86016,-5.51283 4.8701,-6.92173 4.96155,-6.92173 0.1689,0 3.44126,2.77844 3.4631,2.94041 0.0122,0.0918 -1.36326,2.06157 -5.32881,7.63017 -2.93995,4.12853 -5.34583,7.53179 -5.3464,7.5628 -5.1e-4,0.031 3.02177,4.24495 6.71619,9.3643 3.69443,5.11935 6.71714,9.35501 6.71714,9.41259 0,0.13573 -3.11158,2.6382 -3.28033,2.6382 -0.0818,0 -0.20511,-0.12316 -0.42451,-0.42381 z m -76.47725,-0.82892 c -0.007,-0.30375 -0.023,-6.75934 -0.041,-14.34575 l -0.0331,-13.79347 -0.18025,-0.5388 c -0.8271,-2.47202 -2.55955,-4.50169 -4.80781,-5.63255 -2.20789,-1.11054 -5.09145,-1.38777 -8.10647,-0.77934 -4.70566,0.94961 -8.94147,4.13826 -10.28131,7.73965 -0.38047,1.0227 -0.3587,0.0689 -0.32041,14.0279 0.0187,6.91983 0.0165,12.5815 -0.007,12.5815 -0.0223,0 -1.06346,0.26671 -2.31386,0.59269 -1.25032,0.32598 -2.32405,0.59269 -2.38598,0.59269 -0.11222,0 -0.11272,-0.009 -0.14641,-2.62669 -0.0532,-4.12605 -0.16552,-36.32344 -0.12702,-36.36196 0.0503,-0.0503 4.39811,-0.93326 4.60537,-0.93528 l 0.17508,-10e-4 v 3.75428 3.75426 l 0.2375,-0.4879 c 1.15298,-2.36896 3.09664,-4.44652 5.38722,-5.75832 2.26471,-1.297 4.72095,-1.9187 7.89934,-1.99938 3.8871,-0.0987 6.8943,0.61413 9.34831,2.2159 2.41882,1.57872 4.17468,4.05737 4.90179,6.91942 0.2995,1.17905 0.2852,0.54886 0.35288,15.52479 0.0345,7.63087 0.0546,14.18718 0.0438,14.5696 l -0.0187,0.69531 -1.9397,0.42233 c -1.06684,0.23228 -2.00638,0.42251 -2.08785,0.42272 l -0.14821,5.4e-4 -0.008,-0.55228 z m -40.09963,-4.09493 c -0.0779,-9.76544 -0.15561,-33.72336 -0.10942,-33.76581 0.1069,-0.0983 3.97719,-1.78201 4.09638,-1.78201 h 0.12787 v 19.54538 19.54537 l -1.89926,0.39122 c -1.04464,0.21517 -1.96269,0.3909 -2.04014,0.3905 l -0.14088,-7.2e-4 -0.0345,-4.32393 z m -12.39078,-6.76204 c -0.0194,-5.97874 -0.0517,-18.13427 -0.0711,-27.01228 l -0.0359,-16.14183 2.29826,-0.57467 c 1.26397,-0.31606 2.3469,-0.57466 2.40646,-0.57466 0.10661,0 0.10819,0.0331 0.10949,2.3034 7.2e-4,1.26688 0.0474,13.50472 0.10438,27.19522 0.0568,13.69049 0.0985,24.89543 0.093,24.89986 -0.0359,0.0287 -4.56865,0.7769 -4.70242,0.77623 l -0.16631,-7.2e-4 -0.0359,-10.87044 z m 12.60917,-39.21379 c -1.06605,-1.22209 -1.33373,-1.55928 -1.32008,-1.66283 0.0244,-0.18705 3.13443,-2.72584 3.33932,-2.72615 0.11947,-1.6e-4 0.36193,0.24278 1.45478,1.45778 0.96956,1.07787 1.31584,1.49813 1.32805,1.61195 0.0151,0.14185 -0.10884,0.25903 -1.57971,1.49197 -1.1195,0.93838 -1.63941,1.34133 -1.74071,1.34912 -0.12673,0.01 -0.3092,-0.17771 -1.48165,-1.52184 z"
           style="fill:#cccccc;fill-opacity:1;stroke-width:0.3732833"
           sodipodi:nodetypes="cscccccccccsscsssccccscsccccscccscsccscsccscsscccssscccccssscscscccccccssccsccsccccccsccccccccccccssccccccaccccsca" />
        <path
           sodipodi:nodetypes="csccssccccccscscssccccscsccssccssccccsscssscccsssssccsscscscscccscccccccscccsccccccsscccsscssccccccccsccccscscsssssssssccssssssccsscssccc"
           style="fill:#ffffff;fill-opacity:1;stroke-width:0.3732833"
           d="m 329.10748,960.07031 c -0.007,-0.007 -0.0481,-6.63272 -0.0997,-14.72292 l -0.0937,-14.70944 -0.16279,-0.4147 c -0.224,-0.57046 -0.71029,-1.28044 -1.22906,-1.79441 -1.56218,-1.54774 -3.9473,-2.28465 -6.86792,-2.12195 -1.82713,0.1018 -3.47675,0.54072 -4.9441,1.31555 -2.02994,1.07185 -3.51834,2.68257 -4.00636,4.33559 l -0.11932,0.4041 -0.0453,8.99809 c -0.0244,4.94895 -0.0603,10.74442 -0.0784,12.87882 l -0.0331,3.88074 -5.01795,0.90334 c -2.75991,0.49684 -5.04431,0.90236 -5.07643,0.90118 -0.0618,-0.002 -0.13017,-22.94414 -0.13017,-43.59511 v -10.37547 l 4.97147,-1.16848 c 2.73434,-0.64266 5.06198,-1.16848 5.17255,-1.16848 h 0.20108 v 7.59381 7.59381 l -0.36373,0.30612 c -1.26297,1.06305 -2.93456,2.74713 -4.24983,4.28156 -1.12675,1.31451 -1.13875,1.29277 0.1717,0.3111 0.65016,-0.48702 1.75185,-1.29747 2.44827,-1.80101 0.69643,-0.50355 1.66269,-1.21204 2.14719,-1.57444 0.93264,-0.69746 1.48114,-1.00565 2.45926,-1.38164 1.97562,-0.75948 4.12008,-1.12046 7.08567,-1.19274 4.05464,-0.0988 7.84224,0.68175 11.14685,2.29725 3.45649,1.68973 6.14147,4.23558 6.6945,6.34757 0.10791,0.41224 0.10827,0.49131 0.0704,16.18786 -0.0208,8.70153 -0.0589,15.77358 -0.084,15.77358 -0.0251,0 -2.23721,0.38795 -4.91508,0.8621 -4.49969,0.79673 -5.03526,0.88668 -5.05222,0.84862 z M 210.46804,959.5074 c -0.57473,-0.0276 -1.75773,-0.17774 -2.50545,-0.31801 -3.42466,-0.64251 -6.42848,-2.16222 -8.61345,-4.35779 -2.51264,-2.52486 -3.90039,-5.76743 -4.24128,-9.91018 -0.0954,-1.15941 -0.0373,-3.91699 0.10173,-4.80411 0.44383,-2.83719 1.5471,-5.07304 3.42847,-6.94788 2.84885,-2.83894 7.1453,-4.43368 12.85372,-4.77098 2.44029,-0.14419 4.50012,0.0639 6.1863,0.6249 1.2547,0.41746 2.19323,0.92884 3.02213,1.64659 l 0.45281,0.39209 -0.0316,-0.67003 c -0.12809,-2.73512 -1.77576,-4.05286 -5.61573,-4.49123 -2.06665,-0.23593 -3.49729,-0.15502 -6.62734,0.37484 -2.22347,0.3764 -4.00563,0.75238 -7.12605,1.50341 -0.80771,0.19441 -1.5412,0.35348 -1.62993,0.35348 -0.14907,0 -0.16128,-0.0146 -0.16128,-0.19298 0,-0.16124 1.86593,-10.36828 1.90113,-10.39963 0.0359,-0.032 1.194,-0.3683 1.82577,-0.53019 3.25346,-0.83375 6.9129,-1.27016 10.64425,-1.26939 3.57567,7.2e-4 6.0669,0.31982 8.55511,1.09581 5.03627,1.57058 8.05445,4.94114 8.88508,9.92242 0.26358,1.58084 0.25884,1.2188 0.21732,16.70444 l -0.0388,14.44144 -4.58568,0.76844 c -2.52212,0.42264 -4.64028,0.76752 -4.70695,0.7664 -0.1212,-0.002 -0.12127,-0.002 -0.12127,-0.98553 v -0.98348 l 0.36373,-0.40556 c 1.41814,-1.58139 2.82594,-3.57534 4.44947,-6.30228 0.0618,-0.10373 -0.33355,0.2721 -0.87847,0.83515 -0.54491,0.56305 -1.81678,1.8493 -2.82644,2.85832 -1.98978,1.98865 -2.25825,2.20934 -3.68702,3.03075 -2.55431,1.46857 -5.9465,2.19085 -9.49056,2.02077 z m 4.13115,-9.63252 c 3.02544,-0.62416 5.42845,-2.29641 6.235,-4.3389 0.40066,-1.01456 0.40892,-2.16074 0.0244,-3.34061 -0.79679,-2.44321 -3.30239,-4.0969 -6.78545,-4.47825 -0.77883,-0.0853 -2.08799,-0.0324 -2.79325,0.11278 -2.54655,0.52428 -4.66687,1.96579 -5.60346,3.80954 -0.60066,1.18251 -0.66194,2.33108 -0.19346,3.62713 0.29929,0.82804 0.73342,1.46899 1.53287,2.26299 1.23552,1.22712 2.82672,2.05607 4.58396,2.38801 0.25187,0.0476 0.51862,0.098 0.59268,0.11205 0.35504,0.0673 1.77232,-0.0239 2.40696,-0.15474 z m 23.15586,-11.11441 c 0.0215,-11.40184 0.0438,-20.73511 0.0496,-20.7406 0.0187,-0.0188 9.76642,-1.68726 9.85773,-1.68726 0.0846,0 0.0912,0.21263 0.0912,2.91964 v 2.91965 l 0.16803,-0.15826 c 0.0925,-0.087 0.46223,-0.4976 0.82172,-0.91236 1.38524,-1.59809 2.32456,-2.33622 3.82661,-3.00688 2.33706,-1.04348 6.18896,-1.65167 10.47233,-1.65349 l 1.2527,-5.4e-4 v 0.12767 c 0,0.0702 -0.44578,1.17947 -0.99069,2.46504 -1.98418,4.68116 -3.29097,7.50203 -3.50168,7.55859 -0.0632,0.0169 -0.33262,0.0312 -0.59936,0.0319 -0.59018,10e-4 -1.59121,0.11733 -2.31465,0.26792 -2.43742,0.50739 -4.61054,1.6206 -6.19011,3.17097 -0.95807,0.94032 -1.55744,1.89317 -1.88719,3.00013 -0.11221,0.37668 -0.11236,0.39244 -0.12773,12.37543 l -0.0151,11.99825 -0.28212,0.0567 c -1.91657,0.38479 -10.41356,1.99816 -10.52355,1.99816 h -0.14699 l 0.0395,-20.73062 z m 41.70729,20.67082 c -3.45369,-0.25999 -6.7111,-1.11078 -9.45349,-2.46915 -0.9733,-0.48209 -1.29637,-0.66803 -2.2117,-1.27267 -1.13278,-0.74838 -1.86887,-1.34873 -2.83348,-2.31101 -1.42094,-1.4175 -2.35473,-2.67766 -3.23076,-4.36005 -1.74365,-3.34873 -2.53735,-7.08823 -2.43153,-11.45678 0.10525,-4.34504 0.87546,-7.80745 2.40933,-10.83042 2.47119,-4.87012 6.79357,-7.95053 12.88009,-9.17907 0.88005,-0.17765 1.94552,-0.3303 3.12041,-0.44709 1.1991,-0.11919 4.92801,-0.13586 6.0077,-0.0269 2.23088,0.22521 3.86663,0.55616 5.68442,1.15007 3.10425,1.0142 5.81496,2.56005 8.0148,4.57061 0.53047,0.48484 0.66,0.63167 0.66,0.74793 0,0.1138 -0.69736,0.95205 -3.26754,3.92772 -2.78298,3.222 -3.28838,3.78283 -3.40792,3.7815 -0.0974,-7.2e-4 -0.28076,-0.12668 -0.59844,-0.40991 -0.96935,-0.86433 -1.84473,-1.45081 -3.04426,-2.03966 -2.86021,-1.4041 -5.67795,-1.71244 -8.91195,-0.97522 -2.65617,0.60549 -4.7757,1.76456 -6.29894,3.44456 -1.64459,1.81387 -2.48893,4.1381 -2.48893,6.85158 0,4.06682 1.95299,7.72271 5.30969,9.9394 2.01198,1.32867 4.43072,2.01621 6.75959,1.92145 1.85221,-0.0753 3.35972,-0.4606 5.01091,-1.28058 1.52475,-0.75714 2.94211,-1.84786 3.90794,-3.00736 0.25805,-0.30977 0.34512,-0.37983 0.47199,-0.37983 0.13219,0 0.47753,0.31506 2.29259,2.09141 2.26594,2.21757 3.17868,3.09544 3.98401,3.83178 0.38823,0.35501 0.49679,0.48564 0.49679,0.59768 0,0.18768 -0.99321,1.36677 -1.83712,2.18092 -3.28615,3.17021 -7.63634,5.02842 -12.67807,5.4155 -0.81001,0.0622 -3.45677,0.0582 -4.31613,-0.006 z"
           id="path5007"
           inkscape:connector-curvature="0" />
      </g>
    </g>
    <g
       style="stroke-width:0.93749708"
       id="g5029"
       transform="matrix(1.06667,0,0,1.06667,234.65609,-8.7125189)"
       inkscape:export-xdpi="95.999725"
       inkscape:export-ydpi="95.999725">
      <g
         style="stroke-width:0.51959652"
         id="g5021"
         transform="matrix(2.5263157,0,0,2.5263157,-1619.4906,-591.16674)">
        <g
           style="stroke-width:0.51959652"
           id="g5019"
           transform="matrix(0.25,0,0,0.25,502.3126,469.21738)">
          <path
             inkscape:connector-curvature="0"
             style="fill:#ffffff;fill-opacity:1;fill-rule:evenodd;stroke:none;stroke-width:0.51959652;stroke-linecap:round;stroke-linejoin:round;stroke-miterlimit:10;stroke-dasharray:none;stroke-opacity:1"
             d="M 128,0 C 116.60518,27.937051 109.68663,46.237163 97,73.34375 104.7785,81.588957 114.33826,91.155503 129.84375,102 113.17383,95.140423 101.81018,88.271496 93.3125,81.125 77.076039,115.00489 51.621645,163.24639 0,256 c 40.562707,-23.41756 72.007597,-37.86167 101.3125,-43.375 -1.25376,-5.40435 -1.923505,-11.27752 -1.875,-17.375 l 0.03125,-1.28125 c 0.64379,-25.99398 14.16934,-45.98224 30.1875,-44.625 16.01815,1.35723 28.48754,23.53727 27.84375,49.53125 -0.12127,4.89622 -0.6905,9.60082 -1.65625,13.96875 C 184.83328,218.51691 215.98162,232.89667 256,256 c -7.89193,-14.52962 -14.96051,-27.61983 -21.6875,-40.09375 -10.59609,-8.21269 -21.64301,-18.89743 -44.1875,-30.46875 15.4958,4.02645 26.60184,8.6825 35.25,13.875 C 156.97985,71.972668 151.45422,55.040376 128,0 Z"
             transform="matrix(0.7421875,0,0,0.7421875,669.75015,435.62318)"
             id="path5013" />
          <path
             inkscape:connector-curvature="0"
             style="fill:#e6e6e6;fill-opacity:1;fill-rule:evenodd;stroke:none;stroke-width:0.37107861;stroke-linecap:round;stroke-linejoin:round;stroke-miterlimit:10;stroke-dasharray:none;stroke-opacity:1"
             d="m 765.12124,436.36538 c -1.06809,2.62569 -2.07571,5.18569 -3.06152,7.60742 -1.08115,2.65585 -2.13247,5.21447 -3.1543,7.70019 -1.02175,2.48575 -2.05759,4.84198 -3.06152,7.23633 -1.00399,2.39446 -1.9411,4.7617 -2.96875,7.14356 -1.02758,2.38177 -2.15434,4.78844 -3.24707,7.23632 -1.09273,2.44796 -2.23335,4.92185 -3.43262,7.51465 -1.19937,2.59282 -2.45641,5.34774 -3.80371,8.16407 -0.18273,0.38196 -0.37075,0.81915 -0.55664,1.20605 5.75763,6.09886 12.85563,13.14354 24.30664,21.15234 -12.3722,-5.09109 -20.78297,-10.18912 -27.08984,-15.49316 -0.32869,0.67104 -0.58906,1.26104 -0.92774,1.94824 -1.24721,2.58455 -2.58439,5.14414 -3.98925,7.97852 -0.33495,0.66595 -0.58339,1.26662 -0.92774,1.94824 -1.485,2.98035 -3.04573,6.06522 -4.73144,9.37012 -0.33426,0.65055 -0.6781,1.19104 -1.02051,1.85547 -1.02029,1.97964 -4.27491,8.22324 -7.60742,14.56543 -1.94316,3.70493 -3.46894,6.73989 -5.65918,10.85449 -0.62086,1.18197 -1.8984,3.54789 -2.22657,4.1748 24.12062,-13.57765 50.143,-33.2992 97.41211,-16.4209 -2.36708,-4.48319 -4.63595,-8.66436 -6.67968,-12.61718 -2.0437,-3.95294 -3.89608,-7.63232 -5.65918,-11.13282 -1.76296,-3.50043 -3.39212,-6.80069 -4.917,-9.92675 -1.52486,-3.12599 -2.93832,-6.07649 -4.26757,-8.90625 -1.32933,-2.8297 -2.62746,-5.55264 -3.80372,-8.16407 -1.17634,-2.61139 -2.27388,-5.13635 -3.33984,-7.60742 -1.06607,-2.4712 -2.06338,-4.92037 -3.06152,-7.3291 -0.99823,-2.4088 -1.99587,-4.719 -2.96875,-7.14355 -0.42343,-1.055 -0.78165,-2.1785 -1.20606,-3.24707 -2.63564,-6.18974 -5.22363,-12.32495 -8.34961,-19.66797 z"
             id="path5015" />
          <path
             inkscape:connector-curvature="0"
             style="fill:#cccccc;fill-opacity:1;fill-rule:evenodd;stroke:none;stroke-width:18.75743294;stroke-linecap:butt;stroke-linejoin:round;stroke-miterlimit:10;stroke-opacity:1"
             d="M 818.22607,548.55277 C 777.04464,492.65769 767.49922,447.60796 765.0814,436.85262 c 21.96737,50.6686 21.81733,51.28995 53.14467,111.70015 z"
             id="path5017"
             sodipodi:nodetypes="ccc" />
        </g>
      </g>
      <g
         style="stroke-width:0.93749708"
         id="g5027">
        <path
           sodipodi:nodetypes="cscccccccccsscsssccccscsccccscccscsccscsccscsscccssscccccssscscscccccccssccsccsccccccsccccccccccccssccccccaccccsca"
           style="fill:#cccccc;fill-opacity:1;stroke-width:0.3732833"
           d="m 423.18922,960.51365 c -0.76108,-0.0582 -1.36167,-0.13637 -2.10135,-0.27367 -4.99891,-0.9279 -8.5003,-4.06043 -9.78036,-8.75018 -0.3077,-1.12745 -0.28966,-0.34807 -0.37487,-16.18841 -0.0431,-8.04423 -0.0682,-14.63606 -0.056,-14.64853 0.0467,-0.0464 4.69632,-0.97619 4.8905,-0.97788 l 0.20209,-10e-4 0.007,7.17961 c 0.007,3.94879 0.0244,10.41649 0.0453,14.37269 0.0352,6.56804 0.0467,7.2282 0.13269,7.59719 0.71166,3.0583 2.53534,5.25903 5.20108,6.27633 1.92699,0.73535 4.5517,0.84247 7.27842,0.29702 5.46452,-1.09309 9.21972,-4.69977 10.15401,-9.75232 0.19771,-1.06917 0.19964,-1.20089 0.19052,-13.02567 -0.007,-6.3788 0,-11.59783 0.0136,-11.59783 0.0122,0 1.01921,-0.25458 2.23699,-0.56575 1.21777,-0.31116 2.27592,-0.56574 2.35142,-0.56574 h 0.13729 l -5.7e-4,0.98332 c -5.1e-4,0.54083 0.0381,9.30778 0.0856,19.48211 0.0474,10.17433 0.0748,18.51009 0.0611,18.52389 -0.0417,0.0417 -4.46234,0.93631 -4.62692,0.93631 h -0.15288 v -2.43811 c 0,-1.34095 -0.0158,-3.00237 -0.0352,-3.69203 l -0.0352,-1.25393 -0.33219,0.6343 c -0.9659,1.84462 -2.26622,3.38388 -3.8802,4.59309 -1.99747,1.49657 -4.44919,2.43272 -7.2739,2.77746 -0.82977,0.10127 -3.42466,0.14822 -4.3374,0.0785 z m 53.30099,-0.69204 c -0.17005,-0.2331 -2.98751,-4.14539 -6.26102,-8.69397 l -5.95174,-8.27016 -6.05583,8.47845 c -5.45827,7.64178 -6.06992,8.47825 -6.19837,8.47647 -0.21746,-0.003 -3.47718,-2.43683 -3.50009,-2.61326 -0.0129,-0.10041 1.4792,-2.2515 6.43429,-9.27518 3.54815,-5.02945 6.45103,-9.16995 6.45082,-9.20111 0,-0.0312 -2.72127,-3.61706 -6.04671,-7.96865 -4.64258,-6.07508 -6.04248,-7.94128 -6.02976,-8.0381 0.023,-0.17586 3.1342,-2.61293 3.33019,-2.60872 0.11379,0.002 1.0136,1.12501 5.78708,7.21991 3.10877,3.96936 5.66674,7.21614 5.68441,7.21506 0.018,-7.2e-4 2.21307,-3.11672 4.8788,-6.92367 3.86016,-5.51283 4.8701,-6.92173 4.96155,-6.92173 0.1689,0 3.44126,2.77844 3.4631,2.94041 0.0122,0.0918 -1.36326,2.06157 -5.32881,7.63017 -2.93995,4.12853 -5.34583,7.53179 -5.3464,7.5628 -5.1e-4,0.031 3.02177,4.24495 6.71619,9.3643 3.69443,5.11935 6.71714,9.35501 6.71714,9.41259 0,0.13573 -3.11158,2.6382 -3.28033,2.6382 -0.0818,0 -0.20511,-0.12316 -0.42451,-0.42381 z m -76.47725,-0.82892 c -0.007,-0.30375 -0.023,-6.75934 -0.041,-14.34575 l -0.0331,-13.79347 -0.18025,-0.5388 c -0.8271,-2.47202 -2.55955,-4.50169 -4.80781,-5.63255 -2.20789,-1.11054 -5.09145,-1.38777 -8.10647,-0.77934 -4.70566,0.94961 -8.94147,4.13826 -10.28131,7.73965 -0.38047,1.0227 -0.3587,0.0689 -0.32041,14.0279 0.0187,6.91983 0.0165,12.5815 -0.007,12.5815 -0.0223,0 -1.06346,0.26671 -2.31386,0.59269 -1.25032,0.32598 -2.32405,0.59269 -2.38598,0.59269 -0.11222,0 -0.11272,-0.009 -0.14641,-2.62669 -0.0532,-4.12605 -0.16552,-36.32344 -0.12702,-36.36196 0.0503,-0.0503 4.39811,-0.93326 4.60537,-0.93528 l 0.17508,-10e-4 v 3.75428 3.75426 l 0.2375,-0.4879 c 1.15298,-2.36896 3.09664,-4.44652 5.38722,-5.75832 2.26471,-1.297 4.72095,-1.9187 7.89934,-1.99938 3.8871,-0.0987 6.8943,0.61413 9.34831,2.2159 2.41882,1.57872 4.17468,4.05737 4.90179,6.91942 0.2995,1.17905 0.2852,0.54886 0.35288,15.52479 0.0345,7.63087 0.0546,14.18718 0.0438,14.5696 l -0.0187,0.69531 -1.9397,0.42233 c -1.06684,0.23228 -2.00638,0.42251 -2.08785,0.42272 l -0.14821,5.4e-4 -0.008,-0.55228 z m -40.09963,-4.09493 c -0.0779,-9.76544 -0.15561,-33.72336 -0.10942,-33.76581 0.1069,-0.0983 3.97719,-1.78201 4.09638,-1.78201 h 0.12787 v 19.54538 19.54537 l -1.89926,0.39122 c -1.04464,0.21517 -1.96269,0.3909 -2.04014,0.3905 l -0.14088,-7.2e-4 -0.0345,-4.32393 z m -12.39078,-6.76204 c -0.0194,-5.97874 -0.0517,-18.13427 -0.0711,-27.01228 l -0.0359,-16.14183 2.29826,-0.57467 c 1.26397,-0.31606 2.3469,-0.57466 2.40646,-0.57466 0.10661,0 0.10819,0.0331 0.10949,2.3034 7.2e-4,1.26688 0.0474,13.50472 0.10438,27.19522 0.0568,13.69049 0.0985,24.89543 0.093,24.89986 -0.0359,0.0287 -4.56865,0.7769 -4.70242,0.77623 l -0.16631,-7.2e-4 -0.0359,-10.87044 z m 12.60917,-39.21379 c -1.06605,-1.22209 -1.33373,-1.55928 -1.32008,-1.66283 0.0244,-0.18705 3.13443,-2.72584 3.33932,-2.72615 0.11947,-1.6e-4 0.36193,0.24278 1.45478,1.45778 0.96956,1.07787 1.31584,1.49813 1.32805,1.61195 0.0151,0.14185 -0.10884,0.25903 -1.57971,1.49197 -1.1195,0.93838 -1.63941,1.34133 -1.74071,1.34912 -0.12673,0.01 -0.3092,-0.17771 -1.48165,-1.52184 z"
           id="path5023"
           inkscape:connector-curvature="0" />
        <path
           inkscape:connector-curvature="0"
           id="path5025"
           d="m 329.10748,960.07031 c -0.007,-0.007 -0.0481,-6.63272 -0.0997,-14.72292 l -0.0937,-14.70944 -0.16279,-0.4147 c -0.224,-0.57046 -0.71029,-1.28044 -1.22906,-1.79441 -1.56218,-1.54774 -3.9473,-2.28465 -6.86792,-2.12195 -1.82713,0.1018 -3.47675,0.54072 -4.9441,1.31555 -2.02994,1.07185 -3.51834,2.68257 -4.00636,4.33559 l -0.11932,0.4041 -0.0453,8.99809 c -0.0244,4.94895 -0.0603,10.74442 -0.0784,12.87882 l -0.0331,3.88074 -5.01795,0.90334 c -2.75991,0.49684 -5.04431,0.90236 -5.07643,0.90118 -0.0618,-0.002 -0.13017,-22.94414 -0.13017,-43.59511 v -10.37547 l 4.97147,-1.16848 c 2.73434,-0.64266 5.06198,-1.16848 5.17255,-1.16848 h 0.20108 v 7.59381 7.59381 l -0.36373,0.30612 c -1.26297,1.06305 -2.93456,2.74713 -4.24983,4.28156 -1.12675,1.31451 -1.13875,1.29277 0.1717,0.3111 0.65016,-0.48702 1.75185,-1.29747 2.44827,-1.80101 0.69643,-0.50355 1.66269,-1.21204 2.14719,-1.57444 0.93264,-0.69746 1.48114,-1.00565 2.45926,-1.38164 1.97562,-0.75948 4.12008,-1.12046 7.08567,-1.19274 4.05464,-0.0988 7.84224,0.68175 11.14685,2.29725 3.45649,1.68973 6.14147,4.23558 6.6945,6.34757 0.10791,0.41224 0.10827,0.49131 0.0704,16.18786 -0.0208,8.70153 -0.0589,15.77358 -0.084,15.77358 -0.0251,0 -2.23721,0.38795 -4.91508,0.8621 -4.49969,0.79673 -5.03526,0.88668 -5.05222,0.84862 z M 210.46804,959.5074 c -0.57473,-0.0276 -1.75773,-0.17774 -2.50545,-0.31801 -3.42466,-0.64251 -6.42848,-2.16222 -8.61345,-4.35779 -2.51264,-2.52486 -3.90039,-5.76743 -4.24128,-9.91018 -0.0954,-1.15941 -0.0373,-3.91699 0.10173,-4.80411 0.44383,-2.83719 1.5471,-5.07304 3.42847,-6.94788 2.84885,-2.83894 7.1453,-4.43368 12.85372,-4.77098 2.44029,-0.14419 4.50012,0.0639 6.1863,0.6249 1.2547,0.41746 2.19323,0.92884 3.02213,1.64659 l 0.45281,0.39209 -0.0316,-0.67003 c -0.12809,-2.73512 -1.77576,-4.05286 -5.61573,-4.49123 -2.06665,-0.23593 -3.49729,-0.15502 -6.62734,0.37484 -2.22347,0.3764 -4.00563,0.75238 -7.12605,1.50341 -0.80771,0.19441 -1.5412,0.35348 -1.62993,0.35348 -0.14907,0 -0.16128,-0.0146 -0.16128,-0.19298 0,-0.16124 1.86593,-10.36828 1.90113,-10.39963 0.0359,-0.032 1.194,-0.3683 1.82577,-0.53019 3.25346,-0.83375 6.9129,-1.27016 10.64425,-1.26939 3.57567,7.2e-4 6.0669,0.31982 8.55511,1.09581 5.03627,1.57058 8.05445,4.94114 8.88508,9.92242 0.26358,1.58084 0.25884,1.2188 0.21732,16.70444 l -0.0388,14.44144 -4.58568,0.76844 c -2.52212,0.42264 -4.64028,0.76752 -4.70695,0.7664 -0.1212,-0.002 -0.12127,-0.002 -0.12127,-0.98553 v -0.98348 l 0.36373,-0.40556 c 1.41814,-1.58139 2.82594,-3.57534 4.44947,-6.30228 0.0618,-0.10373 -0.33355,0.2721 -0.87847,0.83515 -0.54491,0.56305 -1.81678,1.8493 -2.82644,2.85832 -1.98978,1.98865 -2.25825,2.20934 -3.68702,3.03075 -2.55431,1.46857 -5.9465,2.19085 -9.49056,2.02077 z m 4.13115,-9.63252 c 3.02544,-0.62416 5.42845,-2.29641 6.235,-4.3389 0.40066,-1.01456 0.40892,-2.16074 0.0244,-3.34061 -0.79679,-2.44321 -3.30239,-4.0969 -6.78545,-4.47825 -0.77883,-0.0853 -2.08799,-0.0324 -2.79325,0.11278 -2.54655,0.52428 -4.66687,1.96579 -5.60346,3.80954 -0.60066,1.18251 -0.66194,2.33108 -0.19346,3.62713 0.29929,0.82804 0.73342,1.46899 1.53287,2.26299 1.23552,1.22712 2.82672,2.05607 4.58396,2.38801 0.25187,0.0476 0.51862,0.098 0.59268,0.11205 0.35504,0.0673 1.77232,-0.0239 2.40696,-0.15474 z m 23.15586,-11.11441 c 0.0215,-11.40184 0.0438,-20.73511 0.0496,-20.7406 0.0187,-0.0188 9.76642,-1.68726 9.85773,-1.68726 0.0846,0 0.0912,0.21263 0.0912,2.91964 v 2.91965 l 0.16803,-0.15826 c 0.0925,-0.087 0.46223,-0.4976 0.82172,-0.91236 1.38524,-1.59809 2.32456,-2.33622 3.82661,-3.00688 2.33706,-1.04348 6.18896,-1.65167 10.47233,-1.65349 l 1.2527,-5.4e-4 v 0.12767 c 0,0.0702 -0.44578,1.17947 -0.99069,2.46504 -1.98418,4.68116 -3.29097,7.50203 -3.50168,7.55859 -0.0632,0.0169 -0.33262,0.0312 -0.59936,0.0319 -0.59018,10e-4 -1.59121,0.11733 -2.31465,0.26792 -2.43742,0.50739 -4.61054,1.6206 -6.19011,3.17097 -0.95807,0.94032 -1.55744,1.89317 -1.88719,3.00013 -0.11221,0.37668 -0.11236,0.39244 -0.12773,12.37543 l -0.0151,11.99825 -0.28212,0.0567 c -1.91657,0.38479 -10.41356,1.99816 -10.52355,1.99816 h -0.14699 l 0.0395,-20.73062 z m 41.70729,20.67082 c -3.45369,-0.25999 -6.7111,-1.11078 -9.45349,-2.46915 -0.9733,-0.48209 -1.29637,-0.66803 -2.2117,-1.27267 -1.13278,-0.74838 -1.86887,-1.34873 -2.83348,-2.31101 -1.42094,-1.4175 -2.35473,-2.67766 -3.23076,-4.36005 -1.74365,-3.34873 -2.53735,-7.08823 -2.43153,-11.45678 0.10525,-4.34504 0.87546,-7.80745 2.40933,-10.83042 2.47119,-4.87012 6.79357,-7.95053 12.88009,-9.17907 0.88005,-0.17765 1.94552,-0.3303 3.12041,-0.44709 1.1991,-0.11919 4.92801,-0.13586 6.0077,-0.0269 2.23088,0.22521 3.86663,0.55616 5.68442,1.15007 3.10425,1.0142 5.81496,2.56005 8.0148,4.57061 0.53047,0.48484 0.66,0.63167 0.66,0.74793 0,0.1138 -0.69736,0.95205 -3.26754,3.92772 -2.78298,3.222 -3.28838,3.78283 -3.40792,3.7815 -0.0974,-7.2e-4 -0.28076,-0.12668 -0.59844,-0.40991 -0.96935,-0.86433 -1.84473,-1.45081 -3.04426,-2.03966 -2.86021,-1.4041 -5.67795,-1.71244 -8.91195,-0.97522 -2.65617,0.60549 -4.7757,1.76456 -6.29894,3.44456 -1.64459,1.81387 -2.48893,4.1381 -2.48893,6.85158 0,4.06682 1.95299,7.72271 5.30969,9.9394 2.01198,1.32867 4.43072,2.01621 6.75959,1.92145 1.85221,-0.0753 3.35972,-0.4606 5.01091,-1.28058 1.52475,-0.75714 2.94211,-1.84786 3.90794,-3.00736 0.25805,-0.30977 0.34512,-0.37983 0.47199,-0.37983 0.13219,0 0.47753,0.31506 2.29259,2.09141 2.26594,2.21757 3.17868,3.09544 3.98401,3.83178 0.38823,0.35501 0.49679,0.48564 0.49679,0.59768 0,0.18768 -0.99321,1.36677 -1.83712,2.18092 -3.28615,3.17021 -7.63634,5.02842 -12.67807,5.4155 -0.81001,0.0622 -3.45677,0.0582 -4.31613,-0.006 z"
           style="fill:#ffffff;fill-opacity:1;stroke-width:0.3732833"
           sodipodi:nodetypes="csccssccccccscscssccccscsccssccssccccsscssscccsssssccsscscscscccscccccccscccsccccccsscccsscssccccccccsccccscscsssssssssccssssssccsscssccc" />
      </g>
    </g>
    <text
       xml:space="preserve"
       style="font-style:normal;font-weight:normal;font-size:40px;line-height:125%;font-family:sans-serif;letter-spacing:0px;word-spacing:0px;fill:#ffffff;fill-opacity:1;stroke:none;stroke-width:1px;stroke-linecap:butt;stroke-linejoin:miter;stroke-opacity:1"
       x="87.21875"
       y="-116.44949"
       id="text4575"><tspan
         sodipodi:role="line"
         id="tspan4573"
         x="87.21875"
         y="-116.44949"
         style="font-size:16px">logo_symb_blue.png:</tspan></text>
    <text
       id="text4579"
       y="41.156677"
       x="106.125"
       style="font-style:normal;font-weight:normal;font-size:40px;line-height:125%;font-family:sans-serif;letter-spacing:0px;word-spacing:0px;fill:#ffffff;fill-opacity:1;stroke:none;stroke-width:1px;stroke-linecap:butt;stroke-linejoin:miter;stroke-opacity:1"
       xml:space="preserve"><tspan
         style="font-size:16px"
         y="41.156677"
         x="106.125"
         id="tspan4577"
         sodipodi:role="line">logo_full_blue.png:</tspan></text>
    <text
       id="text4587"
       y="356.36905"
       x="61.15625"
       style="font-style:normal;font-weight:normal;font-size:40px;line-height:125%;font-family:sans-serif;letter-spacing:0px;word-spacing:0px;fill:#ffffff;fill-opacity:1;stroke:none;stroke-width:1px;stroke-linecap:butt;stroke-linejoin:miter;stroke-opacity:1"
       xml:space="preserve"><tspan
         style="font-size:16px"
         y="356.36905"
         x="61.15625"
         id="tspan4585"
         sodipodi:role="line">logo_full_grey_dark.png:</tspan></text>
    <text
       xml:space="preserve"
       style="font-style:normal;font-weight:normal;font-size:40px;line-height:125%;font-family:sans-serif;letter-spacing:0px;word-spacing:0px;fill:#ffffff;fill-opacity:1;stroke:none;stroke-width:1px;stroke-linecap:butt;stroke-linejoin:miter;stroke-opacity:1"
       x="107.28125"
       y="671.58148"
       id="text4595"><tspan
         sodipodi:role="line"
         id="tspan4593"
         x="107.28125"
         y="671.58148"
         style="font-size:16px">logo_full_grey.png:</tspan></text>
    <text
       id="text4599"
       y="986.79382"
       x="61.53125"
       style="font-style:normal;font-weight:normal;font-size:40px;line-height:125%;font-family:sans-serif;letter-spacing:0px;word-spacing:0px;fill:#ffffff;fill-opacity:1;stroke:none;stroke-width:1px;stroke-linecap:butt;stroke-linejoin:miter;stroke-opacity:1"
       xml:space="preserve"><tspan
         style="font-size:16px"
         y="986.79382"
         x="61.53125"
         id="tspan4597"
         sodipodi:role="line">logo_full_grey_light.png:</tspan></text>
    <text
       xml:space="preserve"
       style="font-style:normal;font-weight:normal;font-size:40px;line-height:125%;font-family:sans-serif;letter-spacing:0px;word-spacing:0px;fill:#ffffff;fill-opacity:1;stroke:none;stroke-width:1px;stroke-linecap:butt;stroke-linejoin:miter;stroke-opacity:1"
       x="96.90625"
       y="1302.0063"
       id="text4603"><tspan
         sodipodi:role="line"
         id="tspan4601"
         x="96.90625"
         y="1302.0063"
         style="font-size:16px">logo_full_white.png:</tspan></text>
    <text
       xml:space="preserve"
       style="font-style:normal;font-weight:normal;font-size:40px;line-height:125%;font-family:sans-serif;letter-spacing:0px;word-spacing:0px;fill:#ffffff;fill-opacity:1;stroke:none;stroke-width:1px;stroke-linecap:butt;stroke-linejoin:miter;stroke-opacity:1"
       x="42.25"
       y="198.76285"
       id="text4607"><tspan
         sodipodi:role="line"
         id="tspan4605"
         x="42.25"
         y="198.76285"
         style="font-size:16px">logo_symb_grey_dark.png:</tspan></text>
    <text
       id="text4611"
       y="513.97522"
       x="88.375"
       style="font-style:normal;font-weight:normal;font-size:40px;line-height:125%;font-family:sans-serif;letter-spacing:0px;word-spacing:0px;fill:#ffffff;fill-opacity:1;stroke:none;stroke-width:1px;stroke-linecap:butt;stroke-linejoin:miter;stroke-opacity:1"
       xml:space="preserve"><tspan
         style="font-size:16px"
         y="513.97522"
         x="88.375"
         id="tspan4609"
         sodipodi:role="line">logo_symb_grey.png:</tspan></text>
    <text
       xml:space="preserve"
       style="font-style:normal;font-weight:normal;font-size:40px;line-height:125%;font-family:sans-serif;letter-spacing:0px;word-spacing:0px;fill:#ffffff;fill-opacity:1;stroke:none;stroke-width:1px;stroke-linecap:butt;stroke-linejoin:miter;stroke-opacity:1"
       x="42.625"
       y="829.18768"
       id="text4615"><tspan
         sodipodi:role="line"
         id="tspan4613"
         x="42.625"
         y="829.18768"
         style="font-size:16px">logo_symb_grey_light.png:</tspan></text>
    <text
       id="text4619"
       y="1144.4001"
       x="78"
       style="font-style:normal;font-weight:normal;font-size:40px;line-height:125%;font-family:sans-serif;letter-spacing:0px;word-spacing:0px;fill:#ffffff;fill-opacity:1;stroke:none;stroke-width:1px;stroke-linecap:butt;stroke-linejoin:miter;stroke-opacity:1"
       xml:space="preserve"><tspan
         style="font-size:16px"
         y="1144.4001"
         x="78"
         id="tspan4617"
         sodipodi:role="line">logo_symb_white.png:</tspan></text>
  </g>
</svg>
